SplineFontDB: 3.2
FontName: ProbingSans
FullName: Probing Sans
FamilyName: ProbingSans
Weight: Regular
Copyright: Copyright (c) 2023, Mira, the Multiverse Probe
UComments: "2023-6-27: Created with FontForge (http://fontforge.org)"
Version: 001.000
ItalicAngle: 0
UnderlinePosition: -180
UnderlineWidth: 50
Ascent: 790
Descent: 234
InvalidEm: 0
LayerCount: 2
Layer: 0 0 "+gMyXYgAA" 1
Layer: 1 0 "+Uk2XYgAA" 0
XUID: [1021 998 -886551286 21182]
StyleMap: 0x0000
FSType: 0
OS2Version: 0
OS2_WeightWidthSlopeOnly: 0
OS2_UseTypoMetrics: 1
CreationTime: 1687834375
ModificationTime: 1712713434
PfmFamily: 33
TTFWeight: 400
TTFWidth: 5
LineGap: 492
VLineGap: 92
OS2TypoAscent: 0
OS2TypoAOffset: 1
OS2TypoDescent: 0
OS2TypoDOffset: 1
OS2TypoLinegap: 492
OS2WinAscent: 200
OS2WinAOffset: 1
OS2WinDescent: 200
OS2WinDOffset: 1
HheadAscent: 200
HheadAOffset: 1
HheadDescent: -200
HheadDOffset: 1
OS2Vendor: 'PfEd'
Lookup: 4 0 1 "latin_liga" { "latin_liga-1"  } ['liga' ('DFLT' <'dflt' > 'latn' <'dflt' > ) ]
MarkAttachClasses: 1
DEI: 91125
LangName: 1033
Encoding: UnicodeBmp
UnicodeInterp: none
NameList: AGL For New Fonts
DisplaySize: -36
AntiAlias: 1
FitToEm: 0
WinInfo: 832 32 8
BeginPrivate: 0
EndPrivate
Grid
-92 262 m 25
 658 262 l 1049
-90 702 m 25
 1077 702 l 1049
-92 342 m 29
 658 342 l 1049
-92 169 m 25
 658 169 l 1049
105 -258 m 25
 105 798 l 25
 105 -258 l 25
455 -258 m 25
 455 798 l 25
 455 -258 l 25
125 -258 m 25
 125 798 l 25
 125 -258 l 25
-90 480 m 25
 1077 480 l 1049
1077 476 m 25
 -90 476 l 25
 1077 476 l 25
-90 26 m 25
 1077 26 l 1049
1077 30 m 25
 -90 30 l 25
 1077 30 l 25
92 798 m 25
 92 -258 l 1049
-90 708 m 25
 1077 708 l 1049
-90 -152 m 25
 1077 -152 l 1049
-90 0 m 25
 1077 0 l 1049
-90 734 m 25
 1077 734 l 1049
-90 -178 m 25
 1077 -178 l 1049
-90 506 m 25
 1077 506 l 1049
EndSplineSet
TeXData: 1 0 0 307200 153600 102400 518144 1048576 102400 783286 444596 497025 792723 393216 433062 380633 303038 157286 324010 404750 52429 2506097 1059062 262144
BeginChars: 65536 118

StartChar: u
Encoding: 117 117 0
Width: 580
Flags: W
HStem: -4 60<189.012 324.622> 486 20G<90 156 422 488>
VStem: 90 66<90.2155 506> 422 66<0 145 173 506>
LayerCount: 2
Fore
SplineSet
422 506 m 1
 488 506 l 25
 488 0 l 1
 422 0 l 25
 422 506 l 1
90 506 m 5
 156 506 l 5
 156 174 l 6
 156 119 177 56 245 56 c 7
 316 56 369 103 425 173 c 5
 460 145 l 5
 414 73 347 -4 240 -4 c 7
 130 -4 90 76 90 174 c 6
 90 506 l 5
EndSplineSet
EndChar

StartChar: o
Encoding: 111 111 1
Width: 590
Flags: W
HStem: -4 60<215.907 377.084> 450 60<212.515 373.717>
VStem: 62 66<146.581 356.678> 462 66<149.322 359.419>
LayerCount: 2
Fore
SplineSet
299 -4 m 3
 176 -4 62 69 62 249 c 3
 62 422 169 510 290 510 c 3
 414 510 528 437 528 257 c 3
 528 84 421 -4 299 -4 c 3
288 450 m 3
 199 450 128 376 128 251 c 3
 128 119 209 56 301 56 c 3
 391 56 462 130 462 255 c 3
 462 387 381 450 288 450 c 3
EndSplineSet
EndChar

StartChar: v
Encoding: 118 118 2
Width: 540
Flags: W
HStem: -4 21G<233.382 311.415> 486 20G<30 104.305 435.981 510>
LayerCount: 2
Fore
SplineSet
303 -4 m 1
 242 -4 l 1
 30 488 l 1
 30 506 l 1
 96 506 l 1
 270 87 l 1
 276 87 l 1
 444 506 l 1
 510 506 l 1
 510 488 l 1
 303 -4 l 1
EndSplineSet
EndChar

StartChar: x
Encoding: 120 120 3
Width: 560
Flags: W
HStem: 0 21G<70 155.077 404.923 490> 486 20G<72 158.037 401.963 488>
LayerCount: 2
Fore
SplineSet
488 493 m 1
 141 0 l 1
 70 0 l 1
 70 13 l 1
 416 506 l 1
 488 506 l 1
 488 493 l 1
72 493 m 5
 72 506 l 5
 144 506 l 5
 490 13 l 5
 490 0 l 5
 419 0 l 5
 72 493 l 5
EndSplineSet
EndChar

StartChar: y
Encoding: 121 121 4
Width: 520
Flags: W
HStem: -192 59<41 126.859> -4 21G<238.585 253.444> 486 20G<40 114.095 408.966 480>
LayerCount: 2
Fore
SplineSet
276 86 m 1
 247 -4 l 1
 40 488 l 1
 40 506 l 1
 106 506 l 1
 276 86 l 1
480 506 m 1
 480 488 l 1
 314 18 l 2
 272.169357059 -100.436157726 203 -178 59 -192 c 1
 41 -192 l 1
 41 -133 l 1
 151 -119 210.454531119 -78.4425380233 250 34 c 2
 416 506 l 1
 480 506 l 1
EndSplineSet
EndChar

StartChar: h
Encoding: 104 104 5
Width: 590
Flags: W
HStem: 0 21G<96 162 434 500> 450 60<263.002 395.973>
VStem: 96 66<0 734> 434 66<0 405.02>
LayerCount: 2
Fore
SplineSet
500 0 m 1
 434 0 l 1
 434 322 l 2
 434 377 408 450 340 450 c 3
 269 450 214 405 157.165039062 296.251953125 c 1
 117.834960938 317.748046875 l 1
 167 433 238 510 345 510 c 3
 455 510 500 420 500 322 c 2
 500 0 l 1
162 0 m 1
 96 0 l 1
 96 734 l 1
 162 734 l 25
 162 0 l 1
EndSplineSet
EndChar

StartChar: hcircumflex
Encoding: 293 293 6
Width: 580
Flags: W
HStem: 0 21G<96 162 424 490> 450 60<269.653 388.035>
VStem: 96 66<0 734> 424 66<0 409.029>
LayerCount: 2
Fore
SplineSet
92 786 m 25
 92 798 l 25
 229 966 l 25
 295 966 l 25
 432 798 l 25
 432 786 l 25
 374 786 l 25
 262 900 l 25
 150 786 l 29
 92 786 l 25
490 0 m 1
 424 0 l 1
 424 322 l 2
 424 377 403 450 335 450 c 3
 264 450 214 385 157.165039062 276.251953125 c 1
 117.834960938 297.748046875 l 1
 167 413 233 510 340 510 c 3
 450 510 490 420 490 322 c 2
 490 0 l 1
162 0 m 1
 96 0 l 1
 96 734 l 1
 162 734 l 25
 162 0 l 1
EndSplineSet
EndChar

StartChar: c
Encoding: 99 99 8
Width: 520
Flags: W
HStem: -4 60<217.087 407.518> 29 61<385.981 443> 418 67<371.75 441> 450 60<213.585 408.908>
VStem: 62 66<149.777 356.678>
LayerCount: 2
Fore
SplineSet
443 29 m 1x48
 402 8 356 -4 301 -4 c 3
 177 -4 62 69 62 249 c 3
 62 422 173 510 295 510 c 3x98
 351 510 395 501 441 485 c 1
 441 418 l 1
 432 418 l 1x28
 386 438 350 450 293 450 c 3
 203 450 128 376 128 251 c 3
 128 119 210 56 303 56 c 3x98
 349 56 390 66 431 90 c 1
 443 90 l 1
 443 29 l 1x48
EndSplineSet
EndChar

StartChar: q
Encoding: 113 113 9
Width: 570
Flags: W
HStem: -178 21G<410 476> -4 60<192.236 348.864> 450 60<214.342 408.643>
VStem: 62 66<128.983 357.453> 410 66<-178 55 106.257 440.356>
LayerCount: 2
Fore
SplineSet
255 -4 m 0
 158 -4 62 53 62 241 c 0
 62 448 198 510 303 510 c 0
 363 510 424 498 476 483 c 1
 476 -178 l 1
 410 -178 l 1
 410 55 l 1
 367 14 316 -4 255 -4 c 0
410 434 m 1
 377 446 334 450 296 450 c 0
 212 450 128 392 128 246 c 0
 128 107 193 56 262 56 c 0
 321 56 362 77 410 128 c 1
 410 434 l 1
EndSplineSet
EndChar

StartChar: a
Encoding: 97 97 10
Width: 560
Flags: W
HStem: -4 60<158.3 320.979> 407 73<100 163.763> 450 60<161.436 359.647>
VStem: 62 66<86.1794 201.496> 404 66<135 266 290 404.258> 404 30<266 331>
LayerCount: 2
Fore
SplineSet
128 142 m 3x94
 128 92.7294921875 164 56 232 56 c 0
 303 56 370 96 426 166 c 1
 462 135 l 1
 416 63 334 -4 227 -4 c 0
 117 -4 62 50.2822265625 62 142 c 3
 62 252.145507812 160 300.005859375 268 308 c 0
 340 314 391 318 434 331 c 1
 434 266 l 1
 387 258 330 253 275 248 c 0
 188 241.344726562 128 209.38671875 128 142 c 3x94
404 300 m 3xb8
 404 418 354.799804688 450 286 450 c 3xb8
 229.84375 450 184.078125 440 110 407 c 1
 100 407 l 1
 100 480 l 1xd8
 174.1171875 499 217.1171875 510 283 510 c 3
 374.428710938 510 470 493 470 290 c 3
 470 214 470 0 470 0 c 1xb8
 404 0 l 1xb4
 404 214 404 219 404 300 c 3xb8
EndSplineSet
EndChar

StartChar: T
Encoding: 84 84 11
Width: 670
Flags: W
HStem: 0 21G<292 358> 638 60<42 292 358 628>
VStem: 292 66<0 638>
LayerCount: 2
Fore
SplineSet
42 638 m 1
 42 698 l 5
 628 698 l 5
 628 638 l 5
 358 638 l 5
 358 0 l 1
 292 0 l 1
 292 638 l 1
 42 638 l 1
EndSplineSet
EndChar

StartChar: n
Encoding: 110 110 12
Width: 580
Flags: W
HStem: 0 21G<92 158 424 490> 450 60<255.211 388.548>
VStem: 92 66<0 333 361 506> 424 66<0 411.162>
LayerCount: 2
Fore
SplineSet
158 0 m 1
 92 0 l 25
 92 506 l 1
 158 506 l 25
 158 0 l 1
490 0 m 1
 424 0 l 1
 424 327 l 2
 424 387 400 450 332 450 c 3
 261 450 211 403 155 333 c 1
 120 361 l 1
 166 433 230 510 337 510 c 3
 447 510 490 430 490 327 c 2
 490 0 l 1
EndSplineSet
EndChar

StartChar: r
Encoding: 114 114 13
Width: 440
Flags: W
HStem: 0 21G<96 162> 443 67<247.752 409>
VStem: 96 66<0 506>
LayerCount: 2
Fore
SplineSet
383 443 m 5
 372 446 352 448 326 448 c 7
 262 448 191 402 161 266 c 1
 122 288 l 1
 162 445 232 510 339 510 c 7
 370 510 390 507 409 504 c 5
 409 443 l 29
 383 443 l 5
162 0 m 1
 96 0 l 1
 96 506 l 1
 162 506 l 25
 162 0 l 1
EndSplineSet
EndChar

StartChar: b
Encoding: 98 98 14
Width: 570
Flags: W
HStem: -4 60<164.07 357.146> 450 60<225.17 379.728> 714 20G<96 162>
VStem: 96 66<63.6201 399.743 451 734> 442 66<145.857 375.45>
LayerCount: 2
Fore
SplineSet
322 510 m 0
 416 510 508 451 508 263 c 0
 508 53 373 -4 261 -4 c 0
 205 -4 155 5 96 18 c 1
 96 734 l 1
 162 734 l 1
 162 451 l 1
 205 492 261 510 322 510 c 0
162 68 m 1
 198 60 230 56 268 56 c 0
 361 56 442 110 442 258 c 0
 442 397 380 450 315 450 c 0
 256 450 210 429 162 378 c 1
 162 68 l 1
EndSplineSet
EndChar

StartChar: i
Encoding: 105 105 15
Width: 270
Flags: W
HStem: 0 21G<102 168> 486 20G<102 168> 646 88<102 168>
VStem: 102 66<0 506 646 734>
LayerCount: 2
Fore
SplineSet
168 646 m 1
 102 646 l 25
 102 734 l 1
 168 734 l 25
 168 646 l 1
168 0 m 1
 102 0 l 25
 102 506 l 1
 168 506 l 25
 168 0 l 1
EndSplineSet
EndChar

StartChar: P
Encoding: 80 80 16
Width: 600
Flags: W
HStem: 0 21G<102 168> 280 60<155 399.601> 644 60<168.895 405.624>
VStem: 102 66<0 283 343 642> 470 66<412.194 583.282>
LayerCount: 2
Fore
SplineSet
307 704 m 3
 469.03125 704 536 628.7890625 536 502 c 0
 536 372.348632812 470 280 306 280 c 3
 239.544921875 280 189 281 155 283 c 1
 155 343 l 1
 191.7734375 341.643554688 243.354492188 340 306 340 c 3
 415.850585938 340 470 405.94921875 470 502 c 0
 470 599.759765625 406 644 307 644 c 3
 256.122070312 644 214 644 168 642 c 1
 168 0 l 1
 102 0 l 1
 102 696 l 1
 177.166992188 700.537109375 237.696289062 704 307 704 c 3
EndSplineSet
EndChar

StartChar: e
Encoding: 101 101 17
Width: 560
Flags: W
HStem: -4 60<228.385 436.418> 29 61<409.549 473> 262 60<125 424> 450 60<217.832 375.189>
VStem: 72 66<149.58 320.236> 424 71<322 399.465>
LayerCount: 2
Fore
SplineSet
473 29 m 5x7c
 432 8 370 -4 315 -4 c 7
 186 -4 72 66 72 249 c 7
 72 441 189 510 300 510 c 7
 414.076356874 510 495 445.991210938 495 312 c 7
 495 283.946289062 492 262 492 262 c 5
 125 262 l 5
 96 322 l 5
 424 322 l 5
 424 352 l 5
 411 411 368 450 298 450 c 7
 224 450 138 404 138 252 c 7
 138 120 220 56 317 56 c 7xbc
 363 56 420 66 461 90 c 5
 473 90 l 5
 473 29 l 5x7c
EndSplineSet
EndChar

StartChar: g
Encoding: 103 103 18
Width: 570
Flags: W
HStem: -182 60<179.575 383.113> 54 62<200.115 352.858> 62 62<213.827 418.824> 195 60<219.775 356.816> 450 60<188.839 372.148 442.18 494>
VStem: 90 66<283.823 417.264> 102 64<120.951 185.149> 392 66<288.044 405.264> 440 66<-70.9678 40.4375>
LayerCount: 2
Back
SplineSet
70 -45 m 1
 94 169 455 451 500 449 c 1025
166 92 m 1
 220 62 l 1
 183 24 156 -41 152 -86 c 1
 190 -113 249 -122 297 -122 c 0
 380 -122 445 -79 445 -20 c 0
 445 32 422 59 367 59 c 0
 311 59 266 53 225 53 c 0
 168 53 112 81 112 140 c 0
 112 186 133 219 183 239 c 1
 196 226.627929688 212 225.530273438 225 201 c 1
 190 194 176 177 176 148 c 0
 176 125 204 115 229 115 c 0
 266 115 302 121 371 121 c 0
 460 121 511 74 511 -10 c 0
 511 -126 414 -182 290 -182 c 0
 222 -182 134 -165 79 -120 c 1
 79 -90 l 1
 89 -26 129 43 166 92 c 1
182 169 m 17
 155 144 125 105 125 78 c 3
 125 40 153 26 194 26 c 3
 288 26 508 110.40234375 508 -44 c 3
 508 -115.033203125 400.553710938 -152 290 -152 c 3
 211 -152 95 -132 28 -106 c 1025
EndSplineSet
Fore
SplineSet
408 400 m 1x98
 365 451 l 1
 409 491 457 504 484 506 c 1
 494 506 l 1
 494 448 l 1
 475 446 442 435 408 400 c 1x98
90 350 m 0x9d
 90 457 168 510 276 510 c 0
 384 510 458 462 458 355 c 0
 458 248 381 195 273 195 c 0
 165 195 90 243 90 350 c 0x9d
156 351 m 0
 156 282 195 255 273 255 c 0
 351 255 392 286 392 355 c 0
 392 424 354 450 276 450 c 0
 198 450 156 420 156 351 c 0
142 117 m 1
 199 87 l 1
 150 37 141 -3 137 -45 c 1
 152 -101 209 -122 287 -122 c 0
 370 -122 440 -80 440 -15 c 3
 440 33 409 62 354 62 c 0xba80
 288 62 251 54 210 54 c 0
 163 54 102 76 102 135 c 0
 102 181 133 219 183 239 c 1
 196 227 215 229 228 204 c 1
 193 197 166 172 166 143 c 0
 166 126 189 116 214 116 c 0xda80
 251 116 289 124 358 124 c 0
 447 124 506 74 506 -5 c 3xba80
 506 -121 404 -182 280 -182 c 0
 183 -182 105 -153 69 -75 c 1
 69 -45 l 1
 80 16 93 52 142 117 c 1
EndSplineSet
EndChar

StartChar: S
Encoding: 83 83 19
Width: 600
Flags: W
HStem: -4 60<163.213 398.994> 603 66<431.98 491> 646 60<197.313 434.37>
VStem: 80 66<467.834 597.373> 462 66<112.856 252.873>
LayerCount: 2
Fore
SplineSet
80 525 m 3xb8
 80 648.216796875 173.942382812 706 298 706 c 3xb8
 379.092773438 706 447 690 491 669 c 1
 491 603 l 1
 481 603 l 1xd8
 436 628 375 646 292 646 c 3
 213.897201855 646 146 612.82421875 146 529 c 3
 146 349.997070312 528 449.069335938 528 189 c 7
 528 78.927734375 460.048828125 -4 297 -4 c 7
 203.940429688 -4 126 15 78 41 c 5
 78 109 l 5
 88 109 l 5
 145 77 232.568359375 56 307 56 c 7
 397.088867188 56 462 102.9375 462 185 c 7
 462 381.2578125 80 291.981445312 80 525 c 3xb8
EndSplineSet
EndChar

StartChar: s
Encoding: 115 115 20
Width: 500
Flags: W
HStem: -4 60<129.901 335.633> 31 64<80 142.353> 414 64<338.92 399> 450 60<163.708 360.381>
VStem: 75 66<330.36 425.787> 362 66<82.429 178.64>
LayerCount: 2
Fore
SplineSet
75 371 m 3x8c
 75 455 140 510 248 510 c 3x9c
 306 510 355 499 399 478 c 1
 399 414 l 1
 389 414 l 1x2c
 344 441 286 450 238 450 c 3
 186 450 141 429 141 375 c 3
 141 267 428 298 428 138 c 3
 428 54 383 -4 242 -4 c 3x9c
 185 -4 128 9 80 31 c 1
 80 95 l 1
 90 95 l 1x4c
 147 67 204 56 252 56 c 3
 316 56 362 80 362 134 c 3
 362 242 75 211 75 371 c 3x8c
EndSplineSet
EndChar

StartChar: p
Encoding: 112 112 21
Width: 570
Flags: W
HStem: -178 21G<94 160> -4 60<161.642 363.282> 450 60<219.563 379.491>
VStem: 94 66<-178 8.58008 67.6683 399.743 451 506> 442 66<141.9 377.68>
LayerCount: 2
Fore
SplineSet
313 510 m 4
 407 510 508 453 508 265 c 4
 508 55 381 -4 269 -4 c 4
 234.674804688 -4 193.852539062 0.8837890625 160 8.580078125 c 1
 160 -178 l 1
 94 -178 l 1
 94 506 l 1
 160 506 l 1
 160 451 l 1
 199 492 252 510 313 510 c 4
160 76 m 1
 196 60 237 56 276 56 c 4
 369 56 442 112 442 260 c 4
 442 402 380 450 311 450 c 4
 250 450 205 429 160 378 c 1
 160 76 l 1
EndSplineSet
EndChar

StartChar: thorn
Encoding: 254 254 22
Width: 560
Flags: W
HStem: -178 21G<92 158> -4 60<159.636 353.282> 450 60<215.395 369.491>
VStem: 92 66<-178 8.57992 67.6683 399.743 451 734> 432 66<143.704 376.114>
LayerCount: 2
Fore
SplineSet
303 510 m 0
 397 510 498 451 498 263 c 0
 498 53 371 -4 259 -4 c 0
 224.674900709 -4 191.85262341 0.884171472341 158 8.57992233368 c 1
 158 -178 l 1
 92 -178 l 1
 92 734 l 5
 158 734 l 5
 158 451 l 1
 197 492 242 510 303 510 c 0
158 76 m 1
 194 60 227 56 266 56 c 0
 359 56 432 110 432 258 c 0
 432 400 370 450 301 450 c 0
 240 450 203 429 158 378 c 1
 158 76 l 1
EndSplineSet
EndChar

StartChar: l
Encoding: 108 108 23
Width: 310
Flags: W
HStem: -4 63<180.1 252> 714 20G<96 162>
VStem: 96 66<77.7683 734>
LayerCount: 2
Fore
SplineSet
252 -0.8935546875 m 1
 234.87890625 -3.568359375 229.828125 -4 206 -4 c 3
 132 -4 96 49 96 154 c 2
 96 734 l 1
 162 734 l 1
 162 174 l 2
 162 93 185.376953125 59 215 59 c 3
 230.893554688 59 250.220703125 59.328125 263 62.5322265625 c 1
 263 52.5322265625 l 25
 252 -0.8935546875 l 1
EndSplineSet
EndChar

StartChar: I
Encoding: 73 73 24
Width: 270
Flags: W
HStem: 0 21G<102 168> 682 20G<102 168>
VStem: 102 66<0 702>
LayerCount: 2
Fore
SplineSet
168 0 m 1
 102 0 l 1
 102 702 l 5
 168 702 l 29
 168 0 l 1
EndSplineSet
EndChar

StartChar: parenleft
Encoding: 40 40 25
Width: 390
Flags: W
VStem: 67 66<110.308 445.692>
LayerCount: 2
Fore
SplineSet
67 278 m 3
 67 467 147 668 238 732 c 1
 307 732 l 1
 307 715 l 1
 209 640 133 462 133 278 c 3
 133 94 209 -84 307 -159 c 1
 307 -176 l 1
 238 -176 l 1
 147 -112 67 89 67 278 c 3
EndSplineSet
EndChar

StartChar: parenright
Encoding: 41 41 26
Width: 390
Flags: W
VStem: 257 66<110.308 445.692>
LayerCount: 2
Fore
SplineSet
323 278 m 7
 323 89 243 -112 152 -176 c 5
 83 -176 l 5
 83 -159 l 5
 181 -84 257 94 257 278 c 7
 257 462 181 640 83 715 c 5
 83 732 l 5
 152 732 l 5
 243 668 323 467 323 278 c 7
EndSplineSet
EndChar

StartChar: U
Encoding: 85 85 27
Width: 740
Flags: W
HStem: -4 60<265.531 476.085> 682 20G<97 163 577 643>
VStem: 97 66<169.386 702> 577 66<169.198 702>
LayerCount: 2
Fore
SplineSet
577 702 m 1
 643 702 l 1
 643 300 l 2
 643 118.853515625 555.169921875 -4 368 -4 c 0
 180.946289062 -4 97 119.291015625 97 300 c 2
 97 702 l 1
 163 702 l 1
 163 300 l 2
 163 150.209960938 219.403320312 56 370 56 c 0
 520.427734375 56 577 150.350585938 577 300 c 2
 577 702 l 1
EndSplineSet
EndChar

StartChar: f
Encoding: 102 102 28
Width: 430
Flags: W
HStem: 0 21G<119 185> 416 60<42 382> 652 62<281.956 384> 670 60<217.171 375.714>
VStem: 119 66<0 634.999>
LayerCount: 2
Fore
SplineSet
42 416 m 29xc8
 42 476 l 29
 382 476 l 29
 382 416 l 29
 42 416 l 29xc8
384 714 m 9xe8
 384 652 l 1
 370 652 l 17xe8
 347 664 322 670 280 670 c 0
 235 670 185 647 185 550 c 0
 185 421 185 210 185 0 c 1
 119 0 l 1
 119 553 l 0
 119 674 188 730 274 730 c 0xd8
 330 730 352 726 384 714 c 9xe8
EndSplineSet
EndChar

StartChar: uniFB00
Encoding: 64256 64256 29
Width: 740
Flags: W
HStem: 0 21G<119 185 429 495> 416 60<42 692> 628 62<281.956 384> 646 60<217.171 375.714> 652 62<591.956 694> 670 60<527.171 685.714>
VStem: 119 66<0 610.999> 429 66<0 634.999>
LayerCount: 2
Fore
SplineSet
694 714 m 9xcb
 694 652 l 1
 680 652 l 17xcb
 657 664 632 670 590 670 c 0
 545 670 495 647 495 550 c 0
 495 421 495 210 495 0 c 1
 429 0 l 1
 429 553 l 0
 429 674 498 730 584 730 c 0xc7
 640 730 662 726 694 714 c 9xcb
42 416 m 25
 42 476 l 25
 692 476 l 25
 692 416 l 25
 42 416 l 25
384 690 m 9xe3
 384 628 l 1
 370 628 l 17xe3
 347 640 322 646 280 646 c 0
 235 646 185 623 185 526 c 0
 185 397 185 210 185 0 c 1
 119 0 l 1
 119 529 l 0
 119 650 188 706 274 706 c 0xd3
 330 706 352 702 384 690 c 9xe3
EndSplineSet
Ligature2: "latin_liga-1" f f
LCarets2: 1 363
EndChar

StartChar: uniFB03
Encoding: 64259 64259 30
Width: 940
Flags: W
HStem: 0 21G<119 185 429 495 772 838> 416 60<42 747> 486 20G<772 838> 628 62<281.956 384> 646 60<217.171 375.714> 662 60<593.005 694> 670 60<528.33 693.142>
VStem: 119 66<0 610.999> 429 66<0 634.999> 772 66<0 506 646 734>
LayerCount: 2
Back
SplineSet
868 600 m 5
 802 600 l 29
 802 688 l 5
 868 688 l 29
 868 600 l 5
868 0 m 5
 802 0 l 29
 802 506 l 5
 868 506 l 29
 868 0 l 5
724 714 m 13xec
 724 652 l 5
 710 652 l 21xec
 687 664 662 670 620 670 c 4
 575 670 525 647 525 550 c 4
 525 421 525 210 525 0 c 5
 459 0 l 5
 459 553 l 4
 459 674 528 730 614 730 c 4xdc
 670 730 692 726 724 714 c 13xec
42 386 m 29
 42 446 l 5
 678 446 l 5
 752 446 784 454 802 466 c 5
 812 466 l 13
 782 386 l 29
 42 386 l 29
384 690 m 13
 384 628 l 5
 370 628 l 21xec
 347 640 322 646 280 646 c 4
 235 646 185 623 185 526 c 4
 185 397 185 210 185 0 c 5
 119 0 l 5
 119 529 l 4
 119 650 188 706 274 706 c 4xdc
 330 706 352 702 384 690 c 13
EndSplineSet
Fore
SplineSet
838 646 m 1xe9c0
 772 646 l 25
 772 734 l 1
 838 734 l 25
 838 646 l 1xe9c0
838 0 m 1
 772 0 l 25
 772 506 l 1
 838 506 l 25
 838 0 l 1
694 722 m 9xe5c0
 694 662 l 1
 680 662 l 17xe5c0
 657 668 632 670 590 670 c 0
 545 670 495 647 495 550 c 0
 495 421 495 210 495 0 c 1
 429 0 l 1
 429 553 l 0
 429 674 496 730 591 730 c 0xe3c0
 634 730 662 728 694 722 c 9xe5c0
42 416 m 25
 42 476 l 1
 648 476 l 1
 722 476 754 480 772 485 c 1
 772 461 l 9
 747 416 l 1
 42 416 l 25
384 690 m 9xf1c0
 384 628 l 1
 370 628 l 17xf1c0
 347 640 322 646 280 646 c 0
 235 646 185 623 185 526 c 0
 185 397 185 210 185 0 c 1
 119 0 l 1
 119 529 l 0
 119 650 188 706 274 706 c 0xe9c0
 330 706 352 702 384 690 c 9xf1c0
EndSplineSet
LCarets2: 2 695 360
Ligature2: "latin_liga-1" f f i
EndChar

StartChar: d
Encoding: 100 100 31
Width: 570
Flags: W
HStem: -4 60<191.58 341.338> 450 60<213.728 396.49> 714 20G<398 464>
VStem: 62 66<131.596 354.985> 398 66<0 55 106.257 440.768 499.546 734>
LayerCount: 2
Fore
SplineSet
408 426 m 1
 375 444 341 450 293 450 c 0
 209 450 128 389 128 243 c 0
 128 104 192 56 261 56 c 0
 320 56 360 77 408 128 c 1
 408 426 l 1
254 -4 m 0
 154 -4 62 50 62 238 c 0
 62 445 195 510 300 510 c 0
 345.983398438 510 376.586914062 503.920898438 408 491.545898438 c 1
 408 734 l 1
 474 734 l 1
 474 0 l 1
 408 0 l 1
 408 55 l 1
 365 14 315 -4 254 -4 c 0
EndSplineSet
EndChar

StartChar: w
Encoding: 119 119 32
Width: 766
Flags: W
HStem: 486 20G<65 140.975 343.472 422.614 625.138 701>
VStem: 65 71<477.183 506> 630 71<476.515 506>
LayerCount: 2
Fore
SplineSet
417 506 m 1
 529 107 l 1
 533 107 l 1
 630 506 l 1
 701 506 l 1
 701 488 l 1
 564 -4 l 1
 498 -4 l 1
 387 401 l 1
 379 401 l 1
 268 -4 l 1
 202 -4 l 1
 65 488 l 1
 65 506 l 1
 136 506 l 1
 235 108 l 1
 239 108 l 1
 349 506 l 1
 417 506 l 1
EndSplineSet
EndChar

StartChar: t
Encoding: 116 116 33
Width: 400
Flags: W
HStem: -4 63<201.949 339.334> 4.10645 63.4258<253.216 340> 416 60<42 342>
VStem: 110 66<83.9323 626>
LayerCount: 2
Fore
SplineSet
42 416 m 29x30
 42 476 l 29
 342 476 l 29
 342 416 l 29
 42 416 l 29x30
340 4.1064453125 m 1x70
 317.87890625 -0.568359375 277.828125 -4 243 -4 c 3
 159 -4 110 55 110 154 c 2
 110 626 l 1
 159 636 l 1
 176 636 l 1
 176 164 l 2
 176 89 210.376953125 59 252 59 c 3xb0
 277.893554688 59 307.220703125 62.328125 322 67.5322265625 c 1
 340 67.5322265625 l 25
 340 4.1064453125 l 1x70
EndSplineSet
EndChar

StartChar: m
Encoding: 109 109 34
Width: 870
Flags: W
HStem: 0 21G<96 162 434 500> 450 60<263.002 395.973>
VStem: 96 66<0 734> 434 66<0 405.02>
LayerCount: 2
Fore
SplineSet
780 0 m 1
 714 0 l 1
 714 322 l 2
 714 384 688 450 620 450 c 3
 553 450 499 387 460.165039062 296.251953125 c 1
 417.834960938 317.748046875 l 1
 467 433 518 510 625 510 c 3
 742 510 780 424 780 322 c 2
 780 0 l 1
468 0 m 1
 402 0 l 1
 402 322 l 2
 402 383 376 450 308 450 c 3
 241 450 189 387 148.165039062 296.251953125 c 1
 105.834960938 317.748046875 l 1
 155 433 206 510 313 510 c 3
 423 510 468 420 468 322 c 2
 468 0 l 1
162 0 m 1
 96 0 l 1
 96 506 l 1
 162 506 l 25
 162 0 l 1
EndSplineSet
EndChar

StartChar: k
Encoding: 107 107 35
Width: 560
Flags: W
HStem: 0 21G<96 162 426.816 525> 486 20G<417.281 507> 714 20G<96 162>
VStem: 96 66<0 164 232.606 734>
LayerCount: 2
Fore
SplineSet
211 267 m 1
 234.96875 287.62109375 l 1
 524.96875 20.62109375 l 5
 525 0 l 5
 448 0 l 5
 187.03125 246.37890625 l 1
 211 267 l 1
152 164 m 1
 142.106445312 232.606445312 l 1
 439 506 l 5
 507 506 l 5
 507 480 l 5
 217 214 l 2
 189 190 168.6796875 173.696289062 152 164 c 1
162 0 m 1
 96 0 l 1
 96 734 l 1
 162 734 l 1
 162 0 l 1
EndSplineSet
EndChar

StartChar: z
Encoding: 122 122 36
Width: 550
Flags: W
HStem: 4 60<168.095 466> 441 60<84 381.905>
LayerCount: 2
Fore
SplineSet
168.095343681 64 m 1
 466 64 l 1
 466 4 l 1
 75 4 l 1
 75 50 l 1
 381.904656319 441 l 1
 84 441 l 1
 84 501 l 1
 475 501 l 1
 475 455 l 1
 168.095343681 64 l 1
EndSplineSet
EndChar

StartChar: j
Encoding: 106 106 37
Width: 280
Flags: W
HStem: -192 59<7 60.6583> 486 20G<112 178> 646 88<112 178>
VStem: 112 66<-80.1964 506 646 734>
LayerCount: 2
Fore
SplineSet
178 646 m 1
 112 646 l 25
 112 734 l 1
 178 734 l 25
 178 646 l 1
178 506 m 1
 178 58 l 6
 178 -70 163 -168 25 -192 c 1
 7 -192 l 1
 7 -133 l 1
 108 -119 112 -28 112 56 c 2
 112 506 l 1
 178 506 l 1
EndSplineSet
EndChar

StartChar: ccaron
Encoding: 269 269 38
Width: 520
Flags: W
HStem: -4 60<217.087 407.518> 29 61<385.981 443> 418 67<371.75 441> 450 60<213.585 408.908>
VStem: 62 66<149.777 356.678>
LayerCount: 2
Fore
SplineSet
437 776 m 29x08
 437 764 l 29
 300 596 l 29
 234 596 l 29
 97 764 l 29
 97 776 l 29
 155 776 l 29
 267 662 l 29
 379 776 l 29
 437 776 l 29x08
443 29 m 1x48
 402 8 356 -4 301 -4 c 3
 177 -4 62 69 62 249 c 3
 62 422 173 510 295 510 c 3x98
 351 510 395 501 441 485 c 1
 441 418 l 1
 432 418 l 1x28
 386 438 350 450 293 450 c 3
 203 450 128 376 128 251 c 3
 128 119 210 56 303 56 c 3x98
 349 56 390 66 431 90 c 1
 443 90 l 1
 443 29 l 1x48
EndSplineSet
EndChar

StartChar: zcaron
Encoding: 382 382 39
Width: 550
Flags: W
HStem: 4 60<168.095 466> 441 60<84 381.905>
LayerCount: 2
Fore
SplineSet
447 776 m 29
 447 764 l 29
 310 596 l 29
 244 596 l 29
 107 764 l 29
 107 776 l 29
 165 776 l 29
 277 662 l 29
 389 776 l 29
 447 776 l 29
168.095343681 64 m 1
 466 64 l 1
 466 4 l 1
 75 4 l 1
 75 50 l 1
 381.904656319 441 l 1
 84 441 l 1
 84 501 l 1
 475 501 l 1
 475 455 l 1
 168.095343681 64 l 1
EndSplineSet
EndChar

StartChar: scaron
Encoding: 353 353 40
Width: 500
Flags: W
HStem: -4 60<137.947 335.633> 31 64<80 142.353> 414 64<336.025 399> 450 60<163.708 351.461>
VStem: 75 66<330.36 425.787> 362 66<82.429 178.64>
LayerCount: 2
Fore
SplineSet
422 776 m 29x0c
 422 764 l 29
 285 596 l 29
 219 596 l 29
 82 764 l 29
 82 776 l 29
 140 776 l 29
 252 662 l 29
 364 776 l 29
 422 776 l 29x0c
75 371 m 3
 75 455 140 510 248 510 c 3x9c
 306 510 355 499 399 478 c 1
 399 414 l 1
 379 414 l 1x2c
 334 441 286 450 238 450 c 3
 186 450 141 429 141 375 c 3
 141 267 428 298 428 138 c 3
 428 54 383 -4 242 -4 c 3x9c
 185 -4 128 9 80 31 c 1
 80 95 l 1
 100 95 l 1x4c
 157 67 204 56 252 56 c 3x8c
 316 56 362 80 362 134 c 3
 362 242 75 211 75 371 c 3
EndSplineSet
EndChar

StartChar: gcaron
Encoding: 487 487 41
Width: 580
Flags: W
HStem: -182 60<182.301 389.66> 54 62<200.115 362.851> 62 62<213.834 428.824> 195 60<220.512 365.5> 450 60<192.117 379.189 452.18 504>
VStem: 90 66<287.416 416.368> 102 64<120.951 185.149> 402 66<288.952 405.264> 450 66<-69.8568 40.4375>
LayerCount: 2
Fore
SplineSet
462 776 m 29x98
 462 764 l 29
 325 596 l 29
 259 596 l 29
 122 764 l 29
 122 776 l 29
 180 776 l 29
 292 662 l 29
 404 776 l 29
 462 776 l 29x98
418 400 m 1
 375 451 l 1
 419 491 467 504 494 506 c 1
 504 506 l 1
 504 448 l 1
 485 446 452 435 418 400 c 1
90 350 m 0x9d
 90 457 173 510 281 510 c 0
 389 510 468 462 468 355 c 0
 468 248 386 195 278 195 c 0
 170 195 90 243 90 350 c 0x9d
156 351 m 0
 156 282 200 255 278 255 c 0
 356 255 402 286 402 355 c 0
 402 424 359 450 281 450 c 0
 203 450 156 420 156 351 c 0
142 117 m 1
 199 87 l 1
 150 37 141 -3 137 -45 c 1
 152 -101 214 -122 292 -122 c 0
 375 -122 450 -80 450 -15 c 3
 450 33 419 62 364 62 c 0xba80
 298 62 251 54 210 54 c 0
 163 54 102 76 102 135 c 0
 102 181 133 219 183 239 c 1
 196 227 215 229 228 204 c 1
 193 197 166 172 166 143 c 0
 166 126 189 116 214 116 c 0xda80
 251 116 299 124 368 124 c 0
 457 124 516 74 516 -5 c 3xba80
 516 -121 409 -182 285 -182 c 0
 188 -182 105 -153 69 -75 c 1
 69 -45 l 1
 80 16 93 52 142 117 c 1
EndSplineSet
EndChar

StartChar: uni01E5
Encoding: 485 485 42
Width: 580
Flags: W
HStem: -182 60<182.301 389.66> -54 50<38 542> 54 62<200.115 362.851> 62 62<213.834 428.824> 195 60<220.512 365.5> 450 60<192.117 379.189 452.18 504>
VStem: 38 31<-45 -5.53402> 90 66<287.416 416.368> 102 64<120.951 185.149> 402 66<288.952 405.264> 450 66<-95.9421 40.4375>
LayerCount: 2
Fore
SplineSet
38 -54 m 25xce
 38 -4 l 25
 542 -4 l 25
 542 -54 l 25
 38 -54 l 25xce
418 400 m 1
 375 451 l 1
 419 491 467 504 494 506 c 1
 504 506 l 1
 504 448 l 1
 485 446 452 435 418 400 c 1
90 350 m 0xcf40
 90 457 173 510 281 510 c 0
 389 510 468 462 468 355 c 0
 468 248 386 195 278 195 c 0
 170 195 90 243 90 350 c 0xcf40
156 351 m 0
 156 282 200 255 278 255 c 0
 356 255 402 286 402 355 c 0
 402 424 359 450 281 450 c 0
 203 450 156 420 156 351 c 0
142 117 m 1
 199 87 l 1
 150 37 141 -3 137 -45 c 1
 152 -101 214 -122 292 -122 c 0
 375 -122 450 -80 450 -15 c 3
 450 33 419 62 364 62 c 0xdea0
 298 62 251 54 210 54 c 0
 163 54 102 76 102 135 c 0
 102 181 133 219 183 239 c 1
 196 227 215 229 228 204 c 1
 193 197 166 172 166 143 c 0
 166 126 189 116 214 116 c 0xeea0
 251 116 299 124 368 124 c 0
 457 124 516 74 516 -5 c 3xdea0
 516 -121 409 -182 285 -182 c 0
 188 -182 105 -153 69 -75 c 1
 69 -45 l 1
 80 16 93 52 142 117 c 1
EndSplineSet
EndChar

StartChar: uni01C6
Encoding: 454 454 44
Width: 1120
Flags: W
HStem: -4 60<191.58 341.338> 4 60<738.095 1036> 441 60<654 951.905> 450 60<213.728 396.49> 714 20G<398 464>
VStem: 62 66<131.596 354.985> 398 66<0 55 106.257 440.768 499.546 734>
LayerCount: 2
Fore
SplineSet
1022 776 m 29x0e
 1022 764 l 29
 885 596 l 29
 819 596 l 29
 682 764 l 29
 682 776 l 29
 740 776 l 29
 852 662 l 29
 964 776 l 29
 1022 776 l 29x0e
EndSplineSet
Refer: 36 122 N 1 0 0 1 570 0 2
Refer: 31 100 N 1 0 0 1 0 0 2
EndChar

StartChar: uni026E
Encoding: 622 622 45
Width: 600
Flags: W
HStem: -182 60<175.323 399.687> -152 65<132 205.134> 0 21G<96 162> 197 64<334 411.569> 442 60<115 393> 714 20G<96 162>
VStem: 96 66<0 442 502 734> 115 47<442 502> 474 66<-47.6963 137.571>
LayerCount: 2
Fore
SplineSet
162 0 m 5x3e80
 96 0 l 5
 96 734 l 5
 162 734 l 29
 162 0 l 5x3e80
115 502 m 1xbd80
 482 502 l 1
 482 450 l 1
 333 264 l 1
 334 261 l 1
 431 261 540 197 540 56 c 0
 540 -113 434 -182 301 -182 c 0xbd80
 245 -182 177 -170 132 -152 c 9
 132 -87 l 1
 142 -87 l 1x7d80
 183.1796875 -105.409179688 242 -122 306 -122 c 0
 398 -122 474 -75 474 51 c 0
 474 156 405 197 329 197 c 0
 291 197 257 188 235 173 c 1
 224 173 l 1
 223 233 l 1
 393 442 l 1
 125 442 l 1
 115 442 l 1
 115 502 l 1xbd80
EndSplineSet
EndChar

StartChar: uni0259
Encoding: 601 601 46
Width: 560
Flags: W
HStem: -4 60<189.811 356.281> 201 60<133.027 445> 416 61<104 166.291> 450 60<140.173 346.995>
VStem: 67 66<111.551 200.402>
LayerCount: 2
Fore
SplineSet
104 477 m 1xe8
 145 498 204 510 265 510 c 3
 394 510 498 435 498 252 c 3
 498 60 381 -4 270 -4 c 3
 155.923828125 -4 67 60.0087890625 67 194 c 3
 67 221.40234375 72 248 75 261 c 1
 445 261 l 1
 474 201 l 1
 135 201 l 1
 133.415039062 193.661132812 133 184.04296875 133 175 c 3
 133 117 184.26953125 56 272 56 c 3
 346 56 432 97 432 249 c 3
 432 381 360 450 263 450 c 3xd8
 209 450 157 440 116 416 c 1
 104 416 l 1
 104 477 l 1xe8
EndSplineSet
EndChar

StartChar: uni0251
Encoding: 593 593 47
Width: 580
Flags: W
HStem: -4 60<196.556 334.51> 450 60<234.879 420.522>
VStem: 72 66<121.791 341.2> 422 66<0 85 139.549 442.38>
LayerCount: 2
Fore
SplineSet
257 -4 m 0
 163 -4 72 58 72 221 c 0
 72 417 200 510 319 510 c 0
 375 510 429 501 488 488 c 1
 488 0 l 1
 422 0 l 1
 422 85 l 1
 369 24 318 -4 257 -4 c 0
422 438 m 1
 386 446 350 450 312 450 c 0
 219 450 138 367 138 226 c 0
 138 102 201 56 264 56 c 0
 320 56 361 88 422 167 c 1
 422 438 l 1
EndSplineSet
EndChar

StartChar: uni0252
Encoding: 594 594 48
Width: 580
Flags: W
HStem: -4 60<159.478 345.121> 450 60<245.49 383.444>
VStem: 92 66<63.6201 366.451 421 506> 442 66<164.8 384.209>
LayerCount: 2
Fore
SplineSet
323 510 m 0
 417 510 508 448 508 285 c 0
 508 89 380 -4 261 -4 c 0
 205 -4 151 5 92 18 c 1
 92 506 l 1
 158 506 l 1
 158 421 l 1
 211 482 262 510 323 510 c 0
158 68 m 1
 194 60 230 56 268 56 c 0
 361 56 442 139 442 280 c 0
 442 404 379 450 316 450 c 0
 260 450 219 418 158 339 c 1
 158 68 l 1
EndSplineSet
EndChar

StartChar: chi
Encoding: 967 967 49
Width: 560
Flags: W
HStem: -182 60<451.098 490.174> 450 60<75 116.233>
LayerCount: 2
Fore
SplineSet
503 493 m 1
 126 -178 l 1
 55 -178 l 1
 55 -165 l 1
 431 506 l 1
 503 506 l 1
 503 493 l 1
154.782226562 355.428710938 m 2
 120.557617188 440.583007812 94.8017578125 450 81 450 c 0
 74 450 76 450 66 449 c 1
 66 459 l 1
 75 508 l 1
 87 509 91 510 102 510 c 0
 148.12109375 510 166.724675658 484.501162154 211.217773438 390.571289062 c 2
 409.217773438 -27.4287109375 l 2
 450.007593768 -113.540553857 469.198242188 -122 483 -122 c 0
 490 -122 493 -122 503 -121 c 1
 503 -141 l 1
 486 -180 l 1
 478 -182 470 -182 462 -182 c 0
 415.87890625 -182 397.275324342 -156.501162154 352.782226562 -62.5712890625 c 2
 154.782226562 355.428710938 l 2
EndSplineSet
EndChar

StartChar: pi
Encoding: 960 960 50
Width: 620
Flags: W
HStem: -4 63<478.192 548> 442 60<42 122 188 402 468 562> 442 44<122 188 402 468>
VStem: 122 66<0 486> 402 66<67.9529 486>
LayerCount: 2
Fore
SplineSet
548 -0.8935546875 m 1xb8
 530.87890625 -3.568359375 525.828125 -4 502 -4 c 3
 428 -4 402 35 402 144 c 2
 402 486 l 1
 468 486 l 1
 468 144 l 2
 468 78 481.376953125 59 516 59 c 3
 531.893554688 59 546.220703125 59.328125 559 62.5322265625 c 1
 559 52.5322265625 l 25
 548 -0.8935546875 l 1xb8
188 0 m 1
 122 0 l 25
 122 486 l 1
 188 486 l 25
 188 0 l 1
42 442 m 25xd8
 42 502 l 25
 562 502 l 25
 562 442 l 25
 42 442 l 25xd8
EndSplineSet
EndChar

StartChar: uni0278
Encoding: 632 632 51
Width: 620
Flags: W
HStem: -4 60<215.907 377.084> 450 60<212.515 373.717>
VStem: 62 66<146.581 356.678> 462 66<149.322 359.419>
LayerCount: 2
Fore
SplineSet
343 -177 m 1
 277 -177 l 1
 277 734 l 1
 343 734 l 25
 343 -177 l 1
314.9453125 -4 m 3
 166.115234375 -4 62 69 62 249 c 3
 62 422 157.645507812 510 304.0546875 510 c 3
 454.095703125 510 558 437 558 257 c 3
 558 84 462.565429688 -4 314.9453125 -4 c 3
300.848632812 450 m 3
 182.389648438 450 128 376 128 251 c 3
 128 119 195.69921875 56 318.151367188 56 c 3
 437.942382812 56 492 130 492 255 c 3
 492 387 424.631835938 450 300.848632812 450 c 3
EndSplineSet
EndChar

StartChar: phi
Encoding: 966 966 52
Width: 690
Flags: W
HStem: -177 21G<292 358> -4 60<243.83 448.61> 450 60<398.042 517.271>
VStem: 67 66<164.629 423.052> 292 66<-177 403.29> 562 66<174.029 397.976>
LayerCount: 2
Fore
SplineSet
451.549804688 510 m 3
 540.950195312 510 628 455.260742188 628 297 c 3
 628 83.9951171875 482.650390625 -4 348.450195312 -4 c 3
 193.150390625 -4 67 63 67 268 c 3
 67 377.9453125 88.4150390625 444 122.17578125 506 c 1
 187.494140625 506 l 1
 187.494140625 492 l 1
 154.9453125 440.127929688 133 375.612304688 133 270 c 3
 133 118 230.044921875 56 351.365234375 56 c 3
 460.265625 56 562 130 562 285 c 3
 562 411.461914062 513.165039062 450 450.634765625 450 c 3
 387.62890625 450 358 388 358 284 c 2
 358 -177 l 1
 292 -177 l 1
 292 294 l 2
 292 432 349 510 451.549804688 510 c 3
EndSplineSet
EndChar

StartChar: phi1
Encoding: 981 981 53
Width: 640
Flags: W
HStem: -177 21G<287 353> -4 60<226.977 419.563> 450 60<220.131 412.729> 714 20G<287 353>
VStem: 62 66<151.898 351.421> 287 66<-177 734> 512 66<154.579 354.102>
CounterMasks: 1 0e
LayerCount: 2
Fore
SplineSet
353 -177 m 1
 287 -177 l 1
 287 734 l 1
 353 734 l 25
 353 -177 l 1
324.450195312 -4 m 3
 189.150390625 -4 62 69 62 249 c 3
 62 422 181.450195312 510 314.549804688 510 c 3
 450.950195312 510 578 437 578 257 c 3
 578 84 458.650390625 -4 324.450195312 -4 c 3
311.634765625 450 m 3
 203.9453125 450 128 376 128 251 c 3
 128 119 216.044921875 56 327.365234375 56 c 3
 436.265625 56 512 130 512 255 c 3
 512 387 424.165039062 450 311.634765625 450 c 3
EndSplineSet
EndChar

StartChar: iota
Encoding: 953 953 54
Width: 300
Flags: W
HStem: -4 63<168.192 238> 486 20G<92 158>
VStem: 92 66<67.9529 506>
LayerCount: 2
Fore
SplineSet
238 -0.8935546875 m 5
 220.87890625 -3.568359375 215.828125 -4 192 -4 c 7
 118 -4 92 35 92 144 c 6
 92 506 l 5
 158 506 l 5
 158 144 l 6
 158 78 171.376953125 59 206 59 c 7
 221.893554688 59 236.220703125 59.328125 249 62.5322265625 c 5
 249 52.5322265625 l 29
 238 -0.8935546875 l 5
EndSplineSet
EndChar

StartChar: tau
Encoding: 964 964 55
Width: 490
Flags: W
HStem: -4 63<261.949 399.334> 4.10645 63.4258<313.216 400> 442 44<183.877 236> 486 16<183.877 236>
VStem: 170 66<83.9323 476>
LayerCount: 2
Fore
SplineSet
42 442 m 25x28
 42 502 l 25
 432 502 l 25x18
 432 442 l 25
 42 442 l 25x28
400 4.1064453125 m 1x48
 377.87890625 -0.568359375 337.828125 -4 303 -4 c 3
 219 -4 170 55 170 154 c 2
 170 476 l 1
 219 486 l 1
 236 486 l 1
 236 164 l 2
 236 89 270.376953125 59 312 59 c 3xa8
 337.893554688 59 367.220703125 62.328125 382 67.5322265625 c 1
 400 67.5322265625 l 25
 400 4.1064453125 l 1x48
EndSplineSet
EndChar

StartChar: uni026C
Encoding: 620 620 56
Width: 460
Flags: W
HStem: -4 63<300.023 372> 292 50<115.437 426> 460 50<105.93 208.275> 714 20G<216 282>
VStem: 43 55<359.244 451.993> 216 66<77.7683 734>
LayerCount: 2
Fore
SplineSet
426 292 m 1
 360 292 211 292 170 292 c 3
 101 292 43 335 43 404 c 3
 43 471 88 510 147 510 c 3
 183 510 217 496 251 456 c 1
 235 410 l 1
 205 449 177 460 148 460 c 3
 116 460 98 438 98 407 c 3
 98 370 126 342 174 342 c 3
 211 342 357 342 426 342 c 1
 426 292 l 1
372 -1 m 1
 355 -4 350 -4 326 -4 c 3
 252 -4 216 49 216 154 c 2
 216 734 l 1
 282 734 l 1
 282 174 l 2
 282 93 305 59 335 59 c 3
 351 59 370 60 383 63 c 1
 383 53 l 25
 372 -1 l 1
EndSplineSet
EndChar

StartChar: uni0262
Encoding: 610 610 57
Width: 520
Flags: W
HStem: -4 60<217.087 385.242> 421 67<365.036 441> 450 60<213.585 415.201>
VStem: 62 66<149.777 356.678> 386 66<61.8347 262>
LayerCount: 2
Fore
SplineSet
386 68.68359375 m 1xb8
 386 262 l 1
 452 262 l 1
 452 23 l 1
 411 6 366 -4 301 -4 c 0
 177 -4 62 69 62 249 c 0
 62 422 173 510 295 510 c 0xb8
 351 510 395 504 441 488 c 1
 441 421 l 1
 432 421 l 1xd8
 386 441 350 450 293 450 c 0
 203 450 128 376 128 251 c 0
 128 119 210 56 303 56 c 0
 337.78515625 56 364.415039062 59.8662109375 386 68.68359375 c 1xb8
EndSplineSet
EndChar

StartChar: uni0261
Encoding: 609 609 58
Width: 570
Flags: W
HStem: -182 62<106.48 355.153> -170 68<105 252.981> -4 60<189.713 346.017> 450 60<214.342 408.643>
VStem: 62 66<127.764 355.882> 410 66<-68.3166 61 112.192 440.356>
LayerCount: 2
Fore
SplineSet
410 434 m 1x3c
 377 446 334 450 296 450 c 0
 212 450 128 394 128 240 c 0
 128 107 191 56 258 56 c 0
 320 56 368 80 410 140 c 1
 410 434 l 1x3c
251 -4 m 0
 155 -4 62 52 62 240 c 0
 62 444 198 510 303 510 c 0
 363 510 424 498 476 483 c 1
 476 52 l 0
 476 -86 432 -182 255 -182 c 0xbc
 212 -182 164 -178 105 -170 c 1
 105 -102 l 1
 118 -102 l 1x7c
 163 -117 214 -120 266 -120 c 0xbc
 383 -120 410 -50 410 22 c 2
 410 61 l 1
 375 20 327 -4 251 -4 c 0
EndSplineSet
EndChar

StartChar: V
Encoding: 86 86 59
Width: 680
Flags: W
HStem: 682 20G<30 103.935 576.26 650>
LayerCount: 2
Fore
SplineSet
373 -4 m 1
 312 -4 l 1
 30 684 l 1
 30 702 l 1
 96 702 l 1
 340 87 l 1
 346 87 l 1
 584 702 l 1
 650 702 l 1
 650 684 l 1
 373 -4 l 1
EndSplineSet
EndChar

StartChar: A
Encoding: 65 65 60
Width: 680
Flags: W
HStem: 0 21G<30 103.715 576.091 650> 232 60<172 512> 688 20G<298.971 376.174>
LayerCount: 2
Fore
SplineSet
172 232 m 25
 172 292 l 25
 512 292 l 25
 512 232 l 25
 172 232 l 25
307 708 m 1
 368 708 l 1
 650 18 l 1
 650 0 l 1
 584 0 l 1
 340 617 l 1
 334 617 l 1
 96 0 l 1
 30 0 l 1
 30 18 l 1
 307 708 l 1
EndSplineSet
EndChar

StartChar: period
Encoding: 46 46 61
Width: 270
Flags: W
HStem: 0 88<102 168>
VStem: 102 66<0 88>
LayerCount: 2
Fore
SplineSet
168 0 m 1
 102 0 l 25
 102 88 l 1
 168 88 l 25
 168 0 l 1
EndSplineSet
EndChar

StartChar: uni028C
Encoding: 652 652 62
Width: 540
Flags: W
HStem: 0 21G<30 104.019 435.695 510> 490 20G<228.585 306.618>
LayerCount: 2
Fore
SplineSet
237 510 m 1
 298 510 l 1
 510 18 l 1
 510 0 l 1
 444 0 l 1
 270 419 l 1
 264 419 l 1
 96 0 l 1
 30 0 l 1
 30 18 l 1
 237 510 l 1
EndSplineSet
EndChar

StartChar: W
Encoding: 87 87 63
Width: 950
Flags: W
HStem: -4 21G<228.709 305.691 644.309 721.291> 682 20G<52 127.848 435.276 514.782 822.227 898>
VStem: 52 71<672.432 702> 827 71<671.965 702>
LayerCount: 2
Fore
SplineSet
509 702 m 5
 681 107 l 5
 685 107 l 5
 827 702 l 5
 898 702 l 5
 898 684 l 5
 716 -4 l 5
 650 -4 l 5
 479 597 l 5
 471 597 l 5
 300 -4 l 5
 234 -4 l 5
 52 684 l 5
 52 702 l 5
 123 702 l 5
 267 108 l 5
 271 108 l 5
 441 702 l 5
 509 702 l 5
EndSplineSet
EndChar

StartChar: uni025A
Encoding: 602 602 64
Width: 750
Flags: W
HStem: -4 60<189.811 356.281> 165 63<650.023 722> 416 61<104 166.291> 450 60<140.173 346.995>
VStem: 67 66<111.859 175> 432 66<137.077 294.232> 566 66<246.768 343 350 410>
LayerCount: 2
Fore
SplineSet
722 168 m 1xce
 705 165 700 165 676 165 c 3
 602 165 566 218 566 323 c 2
 566 410 l 1
 632 410 l 1
 632 343 l 2
 632 262 655 228 685 228 c 3
 701 228 720 229 733 232 c 1
 733 222 l 25
 722 168 l 1xce
104 477 m 1xee
 145 498 204 510 265 510 c 3
 394 510 498 435 498 252 c 3
 498 60 381 -4 270 -4 c 3
 155.923828125 -4 67 60.0087890625 67 194 c 3
 67 205 68 209 69 214 c 1
 566 410 l 1
 585 350 l 1
 133 175 l 1
 133 117 184.26953125 56 272 56 c 3
 346 56 432 97 432 249 c 3
 432 381 360 450 263 450 c 3xde
 209 450 157 440 116 416 c 1
 104 416 l 1
 104 477 l 1xee
EndSplineSet
EndChar

StartChar: uni026A
Encoding: 618 618 65
Width: 270
Flags: W
HStem: 4 60<42 102 168 228> 30 34<102 168> 442 60<42 102 168 228> 442 30<102 168>
VStem: 42 186<4 64 442 502> 102 66<30 472>
LayerCount: 2
Fore
SplineSet
42 4 m 25x88
 42 64 l 25
 228 64 l 25
 228 4 l 25
 42 4 l 25x88
42 442 m 25x28
 42 502 l 25
 228 502 l 25
 228 442 l 25
 42 442 l 25x28
168 30 m 1x54
 102 30 l 25
 102 472 l 1
 168 472 l 25
 168 30 l 1x54
EndSplineSet
EndChar

StartChar: uni0250
Encoding: 592 592 66
Width: 560
Flags: W
HStem: -4 60<205.004 413.564> 26 73<411.237 475> 450 60<237.663 404.251>
VStem: 90 66<107.713 216 257 506> 126 30<192 257> 432 66<316.962 423.439>
LayerCount: 2
Fore
SplineSet
432 369 m 3x2c
 432 418.270507812 396 450 328 450 c 0
 257 450 190 410 134 340 c 1
 98 371 l 1
 144 443 228 510 335 510 c 0
 445 510 498 460.717773438 498 369 c 3
 498 265.854492188 416 229 292 215 c 0
 220.20656397 206.89428948 170 202 126 192 c 1
 126 257 l 1
 173 265 230 270 285 275 c 0
 372 281.655273438 432 308.61328125 432 369 c 3x2c
156 206 m 3xb4
 156 88 210.200195312 56 289 56 c 3xb4
 345.15625 56 390.921875 66 465 99 c 1
 475 99 l 1
 475 26 l 1x74
 400.8828125 7 357.8828125 -4 292 -4 c 3
 192.571289062 -4 90 13 90 216 c 3
 90 506 l 1
 156 506 l 1
 156 292 156 287 156 206 c 3xb4
EndSplineSet
EndChar

StartChar: B
Encoding: 66 66 67
Width: 610
Flags: W
HStem: -2 60<136.474 406.489> 342 60<168 378.109> 644 60<136.377 391.448>
VStem: 102 66<61.0152 342 402 639> 440 66<458.814 599.656> 470 66<119.267 280.108>
LayerCount: 2
Back
SplineSet
522 349 m 4
 522 527.399969424 438.434331604 646 274 646 c 4
 230 646 198 646 160 644 c 5
 160 361 l 5
 160 58 l 5
 198 56 230 56 274 56 c 4
 438.434331604 56 522 173.002723767 522 349 c 4
94 361 m 5
 94 639 l 5
 94 699 l 5
 154 705 224 706 271 706 c 4
 458.480598225 706 588 593.390117187 588 351 c 4
 588 108.609882812 458.480598225 -4 271 -4 c 4
 224 -4 154 -4 94 3 c 5
 94 63 l 5
 94 361 l 5
EndSplineSet
Fore
SplineSet
281 704 m 7xf4
 426.03125 704 506 649.7890625 506 538 c 3xf8
 506 458.892578125 465.547851562 403.129882812 413.305664062 380.4765625 c 1
 413.305664062 373.4765625 l 1
 473.881835938 358.716796875 536 301.013671875 536 204 c 3
 536 59.3486328125 441 -2 300 -2 c 3
 218.592773438 -2 137.260742188 2 102 4 c 1
 102 698 l 1
 159.962890625 700.05078125 208 704 281 704 c 7xf4
168 63 m 1
 194.66796875 59.6669921875 237.334960938 58.6669921875 296 58 c 0
 405.850585938 58 470 98.94921875 470 205 c 3xf4
 470 303.229492188 388.603515625 342 276 342 c 2
 168 342 l 1
 168 63 l 1
168 402 m 1
 276 402 l 2
 375.850585938 402 440 445.94921875 440 532 c 3xf8
 440 611.759765625 387 644 268 644 c 3
 229 644 168 639 168 639 c 1
 168 402 l 1
EndSplineSet
EndChar

StartChar: zero
Encoding: 48 48 68
Width: 560
Flags: W
HStem: -4 60<207.424 350.746> 646 60<210.99 348.167>
VStem: 67 68<160.809 533.345> 425 68<162.04 533.345>
LayerCount: 2
Fore
SplineSet
67 377 m 2
 67 558 144.830078125 706 282 706 c 0
 419.053710938 706 493 558 493 377 c 2
 493 315 l 2
 493 134 415.169921875 -4 278 -4 c 0
 140.946289062 -4 67 134 67 315 c 2
 67 377 l 2
425 377 m 2
 425 527 390.596679688 646 280 646 c 0
 169.572265625 646 135 527 135 377 c 2
 135 315 l 2
 135 165 169.403320312 56 280 56 c 0
 390.427734375 56 425 165 425 315 c 2
 425 377 l 2
EndSplineSet
EndChar

StartChar: one
Encoding: 49 49 69
Width: 560
Flags: W
HStem: 4 60<98 258 324 478> 20 44<258 324> 547 60<102 181.085> 684 20G<244.5 324>
VStem: 258 66<20 611>
LayerCount: 2
Fore
SplineSet
98 4 m 25xb8
 98 64 l 25
 478 64 l 25
 478 4 l 25
 98 4 l 25xb8
324 20 m 1x78
 258 20 l 1
 258 611 l 1
 212.979492188 568 148 547 102 547 c 1
 102 607 l 1
 136 607 201 623.4921875 288 704 c 1
 324 704 l 25
 324 20 l 1x78
EndSplineSet
EndChar

StartChar: two
Encoding: 50 50 70
Width: 560
Flags: W
HStem: 4 62<126 496> 603 66<75 137.419> 646 60<136.805 357.206>
VStem: 58 68<66 136.833> 410 66<447.244 597.367>
LayerCount: 2
Fore
SplineSet
58 70 m 3xb8
 58 294.020507812 410 317.961914062 410 529 c 3
 410 612.82421875 342.102539062 646 264 646 c 3xb8
 181 646 140 628 95 603 c 1
 75 603 l 1
 75 669 l 1xd8
 119 690 184.907226562 706 266 706 c 3
 390.057617188 706 476 658.216796875 476 535 c 3
 476 261.93359375 126 262.2578125 126 66 c 1
 496 66 l 25
 496 4 l 25
 60 4 l 17
 59 26 58 40.810546875 58 70 c 3xb8
EndSplineSet
EndChar

StartChar: quotesingle
Encoding: 39 39 71
Width: 270
Flags: W
HStem: 526 208<117 153>
VStem: 92 86<648.684 734>
LayerCount: 2
Fore
SplineSet
153 526 m 5
 117 526 l 21
 92 698 l 1
 92 734 l 1
 178 734 l 17
 178 698 l 1
 153 526 l 5
EndSplineSet
EndChar

StartChar: three
Encoding: 51 51 72
Width: 560
Flags: W
HStem: -4 60<147.312 362.63> 36 68<65 123.565> 342 60<134 301.284> 605 66<79 143.63> 646 60<137.783 353.763>
VStem: 400 66<469.429 602.43> 422 66<117.94 283.301>
LayerCount: 2
Fore
SplineSet
134 402 m 1xa2
 347 408 400 459 400 539 c 0
 400 606 346 646 268 646 c 0xac
 185 646 144 630 99 605 c 1
 79 605 l 1
 79 671 l 1x34
 123 692 184 706 265 706 c 0
 379 706 466 660 466 545 c 0x2c
 466 469 430 413 368 391 c 1
 368 386 l 1
 438.747070312 368.345703125 488 304.986328125 488 202 c 0
 488 92 434 -4 271 -4 c 0xaa
 178 -4 113 12 65 36 c 1
 65 104 l 1
 85 104 l 1x62
 142 76 207 56 281 56 c 0
 371 56 422 116 422 198 c 0
 422 313 343 347 266 347 c 0
 220.95987991 347 189.096169473 343.390199015 146 342 c 1
 134 342 l 1
 134 402 l 1xa2
EndSplineSet
EndChar

StartChar: D
Encoding: 68 68 73
Width: 670
Flags: W
HStem: -2 62<169.03 393.087> 644 60<168 390.277>
VStem: 102 66<60 642> 531 66<210.21 486.343>
LayerCount: 2
Fore
SplineSet
531 349 m 0
 531 527.400390625 446.434570312 644 282 644 c 0
 238 644 206 644 168 642 c 1
 168 361 l 1
 168 60 l 1
 206 58 238 58 282 58 c 0
 446.434570312 58 531 173.002929688 531 349 c 0
102 361 m 1
 102 639 l 1
 102 699 l 1
 162 703 232 704 279 704 c 0
 466.48046875 704 597 593.389648438 597 351 c 0
 597 108.610351562 466.48046875 -2 279 -2 c 0
 232 -2 162 -2 102 3 c 1
 102 63 l 1
 102 361 l 1
EndSplineSet
EndChar

StartChar: E
Encoding: 69 69 74
Width: 610
Flags: W
HStem: 4 60<130 536> 342 60<130 486> 638 60<130 530>
LayerCount: 2
Fore
SplineSet
126 4 m 1
 130 64 l 1
 536 64 l 1
 536 4 l 1
 126 4 l 1
126 342 m 1
 130 402 l 1
 486 402 l 1
 486 342 l 1
 126 342 l 1
126 638 m 1
 130 698 l 1
 530 698 l 1
 530 638 l 1
 126 638 l 1
168 4 m 1
 102 4 l 1
 102 698 l 1
 168 698 l 25
 168 4 l 1
EndSplineSet
EndChar

StartChar: F
Encoding: 70 70 75
Width: 580
Flags: W
HStem: 0 21G<102 168> 312 60<130 496> 638 60<130 530>
VStem: 102 66<0 312 372 638>
LayerCount: 2
Fore
SplineSet
126 312 m 1
 130 372 l 1
 496 372 l 1
 496 312 l 1
 126 312 l 1
126 638 m 1
 130 698 l 1
 530 698 l 1
 530 638 l 1
 126 638 l 1
168 0 m 1
 102 0 l 1
 102 698 l 1
 168 698 l 25
 168 0 l 1
EndSplineSet
EndChar

StartChar: five
Encoding: 53 53 76
Width: 560
Flags: W
HStem: -4 60<139.377 363.092> 26 71<79 147.002> 367 60<170.264 379.993> 638 60<158 456>
VStem: 92 66<405 638> 440 66<134.456 309.341>
LayerCount: 2
Fore
SplineSet
302 427 m 3xbc
 420 427 506 350 506 225 c 3
 506 98 419 -4 274 -4 c 3xbc
 191 -4 150 0 78 26 c 1
 79 97 l 1
 96 97 l 1x7c
 150 68.8260869565 209 56 274 56 c 3
 386 56 440 132 440 222 c 3
 440 310 391 367 298 367 c 3
 242 367 199 357 136 332 c 1
 92 332 l 1
 92 698 l 1
 456 698 l 1
 456 638 l 1
 158 638 l 1
 158 405 l 1
 205 420 242 427 302 427 c 3xbc
EndSplineSet
EndChar

StartChar: C
Encoding: 67 67 77
Width: 650
Flags: W
HStem: -4 60<285.958 537.861> 20 67<484.25 581> 616 67<479.414 581> 646 60<286.786 540.631>
VStem: 72 66<212.948 472.097>
LayerCount: 2
Fore
SplineSet
72 338 m 3x88
 72 541 176 706 386 706 c 3x98
 457 706 512 701 581 683 c 1
 581 616 l 1
 568 616 l 1x28
 509 634 458 646 388 646 c 3
 226 646 138 506 138 340 c 3
 138 170 234 56 390 56 c 3x98
 460 56 509 69 568 87 c 1
 581 87 l 1
 581 20 l 1x48
 512 2 457 -4 386 -4 c 3
 176 -4 72 135 72 338 c 3x88
EndSplineSet
EndChar

StartChar: theta
Encoding: 952 952 78
Width: 600
Flags: W
HStem: -4 60<235.553 365.373> 342 60<122 482> 676 60<234.627 364.447>
VStem: 77 446<114 335 342 618> 122 23<342 402> 455 68<186.43 342 397 551.026> 455 27<342 402>
LayerCount: 2
Fore
SplineSet
122 342 m 25xea
 122 402 l 25
 482 402 l 25
 482 342 l 25
 122 342 l 25xea
77 397 m 2xf0
 77 618 164.830078125 736 302 736 c 0
 439.053710938 736 523 618 523 397 c 2
 523 335 l 2
 523 114 435.169921875 -4 298 -4 c 0
 160.946289062 -4 77 114 77 335 c 2
 77 397 l 2xf0
455 397 m 2xec
 455 547 400.596679688 676 300 676 c 0
 199.572265625 676 145 547 145 397 c 2
 145 335 l 2
 145 185 199.403320312 56 300 56 c 0
 400.427734375 56 455 185 455 335 c 2
 455 397 l 2xec
EndSplineSet
EndChar

StartChar: oslash
Encoding: 248 248 79
Width: 590
Flags: W
HStem: 0 56<215.907 377.084> 450 56<212.515 373.717>
VStem: 62 66<146.581 356.678> 462 66<149.322 359.419>
LayerCount: 2
Fore
SplineSet
500 493 m 5
 153 0 l 5
 92 0 l 5
 92 13 l 5
 438 506 l 5
 500 506 l 5
 500 493 l 5
299 -4 m 3
 176 -4 62 69 62 249 c 3
 62 422 169 510 290 510 c 3
 414 510 528 437 528 257 c 3
 528 84 421 -4 299 -4 c 3
288 450 m 3
 199 450 128 376 128 251 c 3
 128 119 209 56 301 56 c 3
 391 56 462 130 462 255 c 3
 462 387 381 450 288 450 c 3
EndSplineSet
EndChar

StartChar: eth
Encoding: 240 240 80
Width: 600
Flags: W
HStem: -4 60<190.135 345.369> 424 60<230.723 429.386> 662.535 65.7607<124 253.408> 678 60<125.603 345.008>
VStem: 62 66<120.994 315.558> 456 64<210.149 517.745>
LayerCount: 2
Fore
SplineSet
260 530 m 1xcc
 247 530 l 1
 247 592 l 1
 492 756 l 1
 505 756 l 1
 505 695 l 1
 260 530 l 1xcc
308 424 m 3
 225.296875 424 128 349.83203125 128 213.875 c 0
 128 107.216796875 189.1953125 56 266 56 c 0
 404 56 456 203.426757812 456 386 c 3
 456 552.588867188 362.063476562 678 256 678 c 3xdc
 205 678 184.66796875 676.192382812 136 662.53515625 c 1
 124 662.53515625 l 1
 124 728.295898438 l 1xec
 189.25 736.34375 200 738 256 738 c 3xdc
 400.048828125 738 520 626.127929688 520 376 c 3
 520 187.2578125 468.881835938 -4 259 -4 c 0
 151.252929688 -4 62 56.4013671875 62 209.125 c 0
 62 395.4609375 211.586914062 484 315 484 c 3
 392.124023438 484 449.145507812 465.686523438 500.11328125 420.015625 c 1
 461.88671875 375.984375 l 1
 424.629882812 416.247070312 379.646484375 424 308 424 c 3
EndSplineSet
EndChar

StartChar: four
Encoding: 52 52 81
Width: 560
Flags: W
HStem: 0 21G<362 428> 206 60<104 362 428 528> 682 20G<153 233 362 428>
VStem: 167 66<559.016 702> 362 66<0 205 266 702>
LayerCount: 2
Fore
SplineSet
167 702 m 9
 233 702 l 25
 233 686 l 17
 208 456 155.912109375 338.559570312 104 243 c 9
 42 261 l 17
 96.4423828125 354.856445312 139 464 167 702 c 9
42 201 m 1
 42 261 l 1
 362 265 l 5
 362 702 l 5
 428 702 l 5
 428 266 l 5
 528 267 l 1
 528 207 l 1
 428 206 l 5
 428 0 l 5
 362 0 l 5
 362 205 l 5
 42 201 l 1
EndSplineSet
EndChar

StartChar: six
Encoding: 54 54 82
Width: 560
Flags: W
HStem: -4 60<218.734 374.952> 387 60<220.44 376.473> 638 70<347.86 448> 648 60<272.29 447.019>
VStem: 437 66<123.242 322.513>
LayerCount: 2
Fore
SplineSet
298 387 m 3xd8
 226 387 181 342 137.53125 279.633789062 c 1
 99.46875 319.366210938 l 1
 155 398 216.905273438 447 301 447 c 3
 414 447 503 384 503 229 c 3
 503 76 420 -4 302 -4 c 3
 133.959960938 -4 80 87 80 316 c 3
 80 566 182 708 346 708 c 7xd8
 382 708 410 707 448 703 c 5
 448 638 l 5
 436 638 l 5xe8
 406 645 386 648 346 648 c 7
 220 648 144 493 144 326 c 3
 144 123 193 56 306 56 c 3
 383 56 437 117 437 224 c 3
 437 322 391 387 298 387 c 3xd8
EndSplineSet
EndChar

StartChar: comma
Encoding: 44 44 83
Width: 300
Flags: W
HStem: -143 231<132 135>
VStem: 92 126
LayerCount: 2
Fore
SplineSet
135 -144 m 5
 92 -143 l 5
 132 88 l 5
 218 88 l 21
 218 69 l 5
 135 -144 l 5
EndSplineSet
EndChar

StartChar: wdieresis
Encoding: 7813 7813 84
Width: 766
Flags: W
HStem: -4 21G<196.431 273.481 492.519 569.569> 486 20G<65 140.975 343.472 422.614 625.138 701> 646 88<248 314 452 518>
VStem: 65 71<477.183 506> 248 66<646 734> 452 66<646 734> 630 71<476.515 506>
LayerCount: 2
Fore
SplineSet
518 646 m 5
 452 646 l 29
 452 734 l 5
 518 734 l 29
 518 646 l 5
314 646 m 5
 248 646 l 29
 248 734 l 5
 314 734 l 29
 314 646 l 5
417 506 m 1
 529 107 l 1
 533 107 l 1
 630 506 l 1
 701 506 l 1
 701 488 l 1
 564 -4 l 1
 498 -4 l 1
 387 401 l 1
 379 401 l 1
 268 -4 l 1
 202 -4 l 1
 65 488 l 1
 65 506 l 1
 136 506 l 1
 235 108 l 1
 239 108 l 1
 349 506 l 1
 417 506 l 1
EndSplineSet
EndChar

StartChar: eng
Encoding: 331 331 85
Width: 580
Flags: W
HStem: 0 21G<92 158 424 490> 450 60<255.211 388.548>
VStem: 92 66<0 333 361 506> 424 66<0 411.162>
LayerCount: 2
Fore
SplineSet
490 40 m 4
 490 -129 424 -182 301 -182 c 0
 255 -182 220 -179 172 -168 c 9
 172 -103 l 1
 182 -103 l 1
 223.1796875 -117.409179688 262 -122 306 -122 c 0
 378 -122 424 -81 424 25 c 4
 424 130 424 327 424 327 c 2
 424 387 400 450 332 450 c 3
 261 450 211 403 155 333 c 1
 120 361 l 1
 166 433 230 510 337 510 c 3
 447 510 490 430 490 327 c 2
 490 327 490 181 490 40 c 4
158 0 m 1
 92 0 l 25
 92 506 l 1
 158 506 l 25
 158 0 l 1
EndSplineSet
EndChar

StartChar: uni0274
Encoding: 628 628 86
Width: 590
Flags: W
HStem: 0 21G<92 158 424 490> 450 60<255.211 388.548>
VStem: 92 66<0 333 361 506> 424 66<0 411.162>
LayerCount: 2
Fore
SplineSet
158 384 m 1
 158 0 l 1
 92 0 l 1
 92 506 l 1
 144 506 l 1
 432 122 l 5
 432 506 l 1
 498 506 l 1
 498 0 l 1
 446 0 l 1
 158 384 l 1
EndSplineSet
EndChar

StartChar: uni0263
Encoding: 611 611 87
Width: 540
Flags: W
HStem: -182 60<230.972 309.028> 486 20G<35 114 426.197 505>
VStem: 160 66<-116.46 -3.25811> 314 66<-116.46 -5.89432>
LayerCount: 2
Back
SplineSet
0 516 m 29
 255 66 l 22
 287.656585924 8.37073072172 325 -48 325 -94 c 7
 325 -133 287 -152 248 -152 c 31
 209 -152 171 -133 171 -94 c 7
 171 -53 216.904407496 13.0487042458 243 68 c 14
 451 506 l 1053
EndSplineSet
Fore
SplineSet
270 -122 m 3
 292 -122 314 -111.713867188 314 -74 c 3
 314 -24 263.159179688 33.5498046875 243 76 c 2
 35 494 l 1
 35 506 l 1
 104 506 l 1
 307 100 l 2
 330.767578125 50.3671875 380 -8 380 -74 c 3
 380 -143.954101562 327 -182 270 -182 c 3
 213 -182 160 -143.954101562 160 -74 c 3
 160 -8 213.232421875 50.3671875 237 100 c 2
 436 506 l 1
 505 506 l 1
 505 494 l 1
 293 76 l 2
 272.840820312 33.5498046875 226 -24 226 -74 c 3
 226 -111.713867188 248 -122 270 -122 c 3
EndSplineSet
EndChar

StartChar: uni0281
Encoding: 641 641 88
Width: 590
Flags: W
HStem: -4 61<160.32 390.591> 262 60<158 269 292 397.151> 486 20G<92 158 421.97 508>
VStem: 92 66<59.4027 262 322 506> 431 66<95.7503 230.472>
LayerCount: 2
Fore
SplineSet
508 493 m 1
 413 358 l 2
 390 325 356 292 319 272 c 1
 269 284 l 1
 265 314 l 1
 292 322 315 333 342 372 c 2
 436 506 l 1
 508 506 l 1
 508 493 l 1
431 173 m 0
 431 228 390 262 302 262 c 0
 259 262 199 262 158 262 c 1
 158 61 l 1
 207 57 249 57 295 57 c 0
 392 57 431 92 431 173 c 0
92 5 m 1
 92 506 l 1
 158 506 l 1
 158 322 l 1
 199 322 231 322 292 322 c 0
 422 322 497 271 497 173 c 0
 497 49 414 -4 296 -4 c 0
 228 -4 156 0 92 5 c 1
EndSplineSet
EndChar

StartChar: uni0163
Encoding: 355 355 89
Width: 400
Flags: W
HStem: -182 50<105.838 284.057> -161 53<87 192.805> -66 43<255 288.312> -4 34<246 278> 4 64<283.271 340> 416 60<42 342>
VStem: 110 66<83.9323 626> 290 54<-122.017 -69.1319>
LayerCount: 2
Fore
SplineSet
340 4 m 1x2f
 318 -1 278 -4 243 -4 c 3x37
 159 -4 110 55 110 154 c 2
 110 626 l 1
 159 636 l 1
 176 636 l 1
 176 164 l 2
 176 89 210 59 252 59 c 3
 278 59 307 63 322 68 c 1
 340 68 l 25
 340 4 l 1x2f
42 416 m 25
 42 476 l 25
 342 476 l 25
 342 416 l 25
 42 416 l 25
246 30 m 1
 282 30 l 1
 282 12 l 1
 255 -23 l 1
 301 -23 344 -38.031969503 344 -92 c 0
 344 -155.346952162 275.956054688 -182 221 -182 c 0xb7
 175 -182 127 -174 87 -161 c 1
 87 -108 l 1
 101 -108 l 1x67
 148 -124 185 -132 221 -132 c 0xa7
 249.841796875 -132 290 -121.790549009 290 -92 c 0
 290 -74.6734912613 269.073242188 -66 247 -66 c 3
 231.486328125 -66 215.25390625 -71 202 -72 c 5
 192 -72 l 1
 192 -32 l 1
 246 30 l 1
EndSplineSet
EndChar

StartChar: ccedilla
Encoding: 231 231 90
Width: 520
Flags: W
HStem: -182 50<171.838 350.057> -161 53<153 258.805> -66 43<321 354.312> -4 34<312 348> 29 61<385.981 443> 418 67<371.75 441> 450 60<213.585 408.908>
VStem: 62 66<149.777 356.678> 356 54<-122.017 -69.132>
LayerCount: 2
Fore
SplineSet
312 30 m 5xb180
 348 30 l 5
 348 12 l 5
 321 -23 l 5
 367 -23 410 -38.0322265625 410 -92 c 4
 410 -155.346679688 341.956054688 -182 287 -182 c 4xb180
 241 -182 193 -174 153 -161 c 5
 153 -108 l 5
 167 -108 l 5x6180
 214 -124 251 -132 287 -132 c 4
 315.841796875 -132 356 -121.791015625 356 -92 c 4
 356 -74.673828125 335.073242188 -66 313 -66 c 7
 297.486328125 -66 281.25390625 -71 268 -72 c 5
 258 -72 l 5
 258 -32 l 5
 312 30 l 5xb180
443 29 m 1x2b80
 402 8 356 -4 301 -4 c 3
 177 -4 62 69 62 249 c 3
 62 422 173 510 295 510 c 3x3380
 351 510 395 501 441 485 c 1
 441 418 l 1
 432 418 l 1x2580
 386 438 350 450 293 450 c 3
 203 450 128 376 128 251 c 3
 128 119 210 56 303 56 c 3
 349 56 390 66 431 90 c 1
 443 90 l 1
 443 29 l 1x2b80
EndSplineSet
EndChar

StartChar: tcaron
Encoding: 357 357 91
Width: 440
Flags: W
HStem: -4 63<201.949 339.334> 4.10645 63.4258<253.216 340> 416 60<42 342>
VStem: 110 66<83.9323 626>
LayerCount: 2
Fore
SplineSet
335 544 m 1x30
 292 545 l 1
 332 776 l 1
 418 776 l 17
 418 757 l 1
 335 544 l 1x30
42 416 m 25
 42 476 l 25
 342 476 l 25
 342 416 l 25
 42 416 l 25
340 4.1064453125 m 1x70
 317.87890625 -0.568359375 277.828125 -4 243 -4 c 3
 159 -4 110 55 110 154 c 2
 110 626 l 1
 159 636 l 1
 176 636 l 1
 176 164 l 2
 176 89 210.376953125 59 252 59 c 3xb0
 277.893554688 59 307.220703125 62.328125 322 67.5322265625 c 1
 340 67.5322265625 l 25
 340 4.1064453125 l 1x70
EndSplineSet
EndChar

StartChar: uni0137
Encoding: 311 311 92
Width: 560
Flags: W
HStem: 0 21G<96 162 426.816 525> 486 20G<417.281 507> 714 20G<96 162>
VStem: 96 66<0 164 232.606 734>
LayerCount: 2
Fore
SplineSet
275 -294 m 5
 232 -293 l 5
 272 -62 l 5
 358 -62 l 21
 358 -81 l 5
 275 -294 l 5
211 267 m 1
 234.96875 287.62109375 l 1
 524.96875 20.62109375 l 1
 525 0 l 1
 448 0 l 1
 187.03125 246.37890625 l 1
 211 267 l 1
152 164 m 1
 142.106445312 232.606445312 l 1
 439 506 l 1
 507 506 l 1
 507 480 l 1
 217 214 l 2
 189 190 168.6796875 173.696289062 152 164 c 1
162 0 m 1
 96 0 l 1
 96 734 l 1
 162 734 l 1
 162 0 l 1
EndSplineSet
EndChar

StartChar: uni01E9
Encoding: 489 489 93
Width: 560
Flags: W
HStem: 0 21G<96 162 426.816 525> 486 20G<417.281 507> 714 20G<96 162>
VStem: 96 66<0 164 232.606 734>
LayerCount: 2
Fore
SplineSet
462 966 m 29
 462 954 l 29
 325 786 l 29
 259 786 l 29
 122 954 l 29
 122 966 l 29
 180 966 l 29
 292 852 l 29
 404 966 l 29
 462 966 l 29
211 267 m 1
 234.96875 287.62109375 l 1
 524.96875 20.62109375 l 1
 525 0 l 1
 448 0 l 1
 187.03125 246.37890625 l 1
 211 267 l 1
152 164 m 1
 142.106445312 232.606445312 l 1
 439 506 l 1
 507 506 l 1
 507 480 l 1
 217 214 l 2
 189 190 168.6796875 173.696289062 152 164 c 1
162 0 m 1
 96 0 l 1
 96 734 l 1
 162 734 l 1
 162 0 l 1
EndSplineSet
EndChar

StartChar: seven
Encoding: 55 55 94
Width: 560
Flags: W
HStem: 0 21G<208 280> 638 60<42 455>
VStem: 208 66<0 197.752>
LayerCount: 2
Fore
SplineSet
274 0 m 1
 208 0 l 1
 208 16 l 1
 218 296 311 480 455 660 c 1
 502 622 l 1
 352 412 286 284 274 0 c 1
502 702 m 1
 502 622 l 1
 457 641.608695652 l 1
 42 638 l 1
 42 698 l 1
 502 702 l 1
EndSplineSet
EndChar

StartChar: nine
Encoding: 57 57 95
Width: 560
Flags: W
HStem: 0 21G<155 333.5> 257 60<208.114 368.162> 648 60<208.048 370.61>
VStem: 80 66<384.177 580.758> 439 64<306.114 570.19>
LayerCount: 2
Fore
SplineSet
287 317 m 3
 359 317 407 356 445 424 c 1
 484 385 l 1
 433 300 368 257 284 257 c 3
 171 257 80 320 80 475 c 3
 80 628 163 708 281 708 c 3
 449 708 503 619.409179688 503 443 c 3
 503 278 415 112 252 0 c 1
 155 0 l 1
 155 12 l 1
 338 134 439 272 439 428 c 3
 439 591.342773438 390 648 277 648 c 3
 200 648 146 587 146 480 c 3
 146 382 194 317 287 317 c 3
EndSplineSet
EndChar

StartChar: eight
Encoding: 56 56 96
Width: 560
Flags: W
HStem: -4 60<189.871 374.584> 646 60<203.409 362.571>
VStem: 63 66<116.719 288.53> 99 66<473.916 608.48> 403 66<472.349 606.919> 431 66<111.598 291.691>
LayerCount: 2
Fore
SplineSet
284 646 m 0xe8
 221 646 165 616 165 545 c 0
 165 468 217 436.145373597 291 422 c 0
 407 399.826171119 497 331 497 200 c 0xd4
 497 52 399 -4 283 -4 c 0
 178 -4 63 53 63 201 c 0
 63 332 161 401.454123113 277 422 c 0
 355 435.81533101 403 466 403 543 c 0
 403 614 347 646 284 646 c 0xe8
283 56 m 0
 358 56 431 85 431 200 c 0
 431 315 363 347.041691176 277 362 c 0
 181 378.697647059 99 439 99 545 c 0xd4
 99 655 182 706 284 706 c 3
 391 706 469 653 469 543 c 0
 469 437 381 378.476333584 291 362 c 0
 201 345.523666416 129 316 129 201 c 0xe8
 129 87 209 56 283 56 c 0
EndSplineSet
EndChar

StartChar: X
Encoding: 88 88 97
Width: 700
Flags: W
HStem: 0 21G<70 154.759 544.864 630> 682 20G<72 158.107 529.27 615>
LayerCount: 2
Fore
SplineSet
615 689 m 1
 141 0 l 1
 70 0 l 1
 70 13 l 1
 543 702 l 1
 615 702 l 1
 615 689 l 1
72 689 m 5
 72 702 l 5
 144 702 l 5
 630 13 l 5
 630 0 l 5
 559 0 l 5
 72 689 l 5
EndSplineSet
EndChar

StartChar: G
Encoding: 71 71 98
Width: 690
Flags: W
HStem: -4 60<278.938 529.723> 619 67<464.246 581> 646 60<286.786 551.742>
VStem: 72 66<208.321 474.599> 532 66<66.7739 345>
LayerCount: 2
Fore
SplineSet
72 341 m 4xb8
 72 544 176 706 386 706 c 0xb8
 447 706 512 702 581 686 c 1
 581 619 l 1
 568 619 l 1xd8
 509 637 448 646 388 646 c 0
 226 646 138 509 138 343 c 4
 138 173 220 56 390 56 c 0
 439.70851981 56 487.400390625 63.0341796875 532 70.0283203125 c 1
 532 345 l 1
 598 345 l 1
 598 21 l 1
 539 7 467 -4 386 -4 c 0
 153 -4 72 138 72 341 c 4xb8
EndSplineSet
EndChar

StartChar: H
Encoding: 72 72 99
Width: 710
Flags: W
HStem: 0 21G<102 168 542 608> 342 60<130 576> 682 20G<102 168 542 608>
VStem: 102 66<0 342 402 702> 542 66<0 342 402 702> 542 34<342 402>
LayerCount: 2
Fore
SplineSet
126 342 m 1xf4
 130 402 l 1
 576 402 l 1
 576 342 l 1
 126 342 l 1xf4
608 0 m 1xf8
 542 0 l 1
 542 702 l 1
 608 702 l 25
 608 0 l 1xf8
168 0 m 1
 102 0 l 1
 102 702 l 1
 168 702 l 25
 168 0 l 1
EndSplineSet
EndChar

StartChar: Z
Encoding: 90 90 100
Width: 670
Flags: W
HStem: 4 60<168.095 595> 638 60<92 494.904>
LayerCount: 2
Fore
SplineSet
168.095343681 64 m 1
 595 64 l 1
 595 4 l 1
 75 4 l 1
 75 50 l 1
 494.904296875 638 l 1
 92 638 l 1
 92 698 l 1
 588 698 l 1
 588 652 l 1
 168.095343681 64 l 1
EndSplineSet
EndChar

StartChar: L
Encoding: 76 76 101
Width: 570
Flags: W
HStem: 4 60<130 536>
VStem: 102 66<64 698>
LayerCount: 2
Fore
SplineSet
126 4 m 1
 130 64 l 1
 536 64 l 1
 536 4 l 1
 126 4 l 1
168 4 m 1
 102 4 l 1
 102 698 l 1
 168 698 l 25
 168 4 l 1
EndSplineSet
EndChar

StartChar: uni01C4
Encoding: 452 452 104
Width: 1340
VWidth: 0
Flags: W
HStem: -2 62<169.03 393.087> 4 60<838.095 1265> 638 60<762 1164.9> 644 60<168 390.277>
VStem: 102 66<60 642> 531 66<210.21 486.343>
LayerCount: 2
Fore
SplineSet
1182 965 m 29x0c
 1182 953 l 29
 1045 785 l 29
 979 785 l 29
 842 953 l 29
 842 965 l 29
 900 965 l 29
 1012 851 l 29
 1124 965 l 29
 1182 965 l 29x0c
EndSplineSet
Refer: 100 90 N 1 0 0 1 670 0 2
Refer: 73 68 N 1 0 0 1 0 0 2
EndChar

StartChar: uni01C5
Encoding: 453 453 105
Width: 1220
VWidth: 0
Flags: W
HStem: -2 62<169.03 393.087> 4 60<838.095 1136> 441 60<754 1051.9> 644 60<168 390.277>
VStem: 102 66<60 642> 531 66<210.21 486.343>
LayerCount: 2
Fore
SplineSet
1122 776 m 29x3c
 1122 764 l 29
 985 596 l 29
 919 596 l 29
 782 764 l 29
 782 776 l 29
 840 776 l 29
 952 662 l 29
 1064 776 l 29
 1122 776 l 29x3c
EndSplineSet
Refer: 36 122 N 1 0 0 1 670 0 2
Refer: 73 68 N 1 0 0 1 0 0 2
EndChar

StartChar: germandbls
Encoding: 223 223 106
Width: 640
Flags: W
HStem: -4 60<271.842 490.384> 15 65<257 372.556> 670 60<224.576 365.407>
VStem: 96 66<0 595.987> 278 70<323.694 419.227> 396.5 66<520.411 639.381> 517 66<82.429 180.414>
LayerCount: 2
Fore
SplineSet
294 670 m 3xbe
 222.869140625 670 162 618 162 476 c 0
 162 347 162 210 162 0 c 1
 96 0 l 1
 96 491 l 0
 102 670 201 730 296 730 c 3
 409.051757812 730 462.5 667.544921875 462.5 584.5 c 3
 462.5 469.142578125 348 440 348 363 c 3
 348 275 583 298 583 138 c 3
 583 54 533 -4 399 -4 c 3xbe
 352 -4 305 2 257 15 c 1
 257 80 l 1
 267 80 l 1x7e
 309 64 362 56 409 56 c 3
 473 56 517 80 517 134 c 3
 517 242 278 214 278 354 c 3
 278 471 396.5 493.5 396.5 578.5 c 3
 396.5 636.5 356.024414062 670 294 670 c 3xbe
EndSplineSet
EndChar

StartChar: R
Encoding: 82 82 107
Width: 610
Flags: W
HStem: 0 21G<102 168 492.049 573> 309.305 61.6953<168 328.608> 644 60<168.211 395.185>
VStem: 102 66<0 309.305 369.282 641> 457 66<437.025 588.599>
LayerCount: 2
Fore
SplineSet
294 704 m 0
 449.03125 704 523 641.7890625 523 515 c 0
 523 420.684570312 460.919921875 348.73046875 376.546875 330.567382812 c 1
 376.546875 324.567382812 l 1
 408 319 459.717773438 255.26171875 479.01171875 214 c 2
 573 13 l 1
 573 0 l 1
 501 0 l 1
 437 143 l 2
 394.146954573 238.749773375 347.42578125 301.358398438 252.14453125 310.416992188 c 1
 168 309.3046875 l 1
 168 0 l 1
 102 0 l 1
 102 696 l 1
 167 702.536132812 229 703.020507812 294 704 c 0
168 369.282226562 m 1
 283 371 l 2
 385.814453125 372.53515625 457 418.94921875 457 515 c 0
 457 612.759765625 374 644 294 644 c 0
 234.6953125 644 208 643 168 641 c 1
 168 369.282226562 l 1
EndSplineSet
EndChar

StartChar: O
Encoding: 79 79 108
Width: 760
Flags: W
HStem: -4 60<277.055 482.522> 646 60<277.434 482.945>
VStem: 72 66<217.301 487.722> 622 66<215.094 485.533>
LayerCount: 2
Fore
SplineSet
379 646 m 3
 217 646 138 516 138 350 c 3
 138 180 225 56 381 56 c 3
 543 56 622 187 622 353 c 3
 622 523 535 646 379 646 c 3
373 -4 m 3
 168 -4 72 145 72 348 c 3
 72 551 166.76171875 706 387 706 c 3
 592 706 688 558 688 355 c 3
 688 152 593 -4 373 -4 c 3
EndSplineSet
EndChar

StartChar: N
Encoding: 78 78 109
Width: 720
Flags: W
HStem: 0 21G<102 168 549.05 618> 682 20G<102 173.914 552 618>
VStem: 102 66<0 624 683 694.928> 552 66<30.656 72 88 702> 610 8<27 54.5803>
LayerCount: 2
Fore
SplineSet
105 670 m 1xe8
 105 683 l 1
 160 702 l 1
 598.3046875 72 l 1
 610 27 l 1
 610 14 l 1
 563 0 l 1
 127.766601562 624 l 1
 105 670 l 1xe8
618 0 m 1
 563 0 l 1
 552 88 l 1
 552 702 l 1
 618 702 l 25xf0
 618 0 l 1
168 0 m 1
 102 0 l 1
 102 702 l 1
 160 702 l 17
 168 634 l 1
 168 0 l 1
EndSplineSet
EndChar

StartChar: uni0162
Encoding: 354 354 110
Width: 670
Flags: W
HStem: -182 50<218.838 397.057> -161 53<200 305.805> -66 43<368 401.312> 0 50<336.22 358> 638 60<42 292 358 628>
VStem: 292 66<50 638> 403 54<-122.017 -69.132>
LayerCount: 2
Fore
SplineSet
329 50 m 1xbe
 405 50 l 1
 405 22 l 1
 368 -23 l 1
 414 -23 457 -38.0322265625 457 -92 c 0
 457 -155.346679688 388.956054688 -182 334 -182 c 0xbe
 288 -182 240 -174 200 -161 c 1
 200 -108 l 1
 214 -108 l 1x7e
 261 -124 298 -132 334 -132 c 0
 362.841796875 -132 403 -121.791015625 403 -92 c 0
 403 -74.673828125 382.073242188 -66 360 -66 c 3
 344.486328125 -66 328.25390625 -71 315 -72 c 5
 305 -72 l 1
 305 -32 l 1
 336.219726562 8 l 1
 329 50 l 1xbe
42 638 m 1
 42 698 l 1
 628 698 l 1
 628 638 l 1
 358 638 l 1
 358 0 l 1
 292 0 l 1
 292 638 l 1
 42 638 l 1
EndSplineSet
EndChar

StartChar: ae
Encoding: 230 230 111
Width: 849
Flags: W
HStem: -4 60<161.515 311.35 524.156 726.503> 262 60<455 714> 407 73<100 160.99> 450 60<159.847 342.309 513.161 664.096>
VStem: 62 66<86.9599 199.465> 389 66<124.57 261.28 322.227 392.421> 714 71<322 399.465>
LayerCount: 2
Back
SplineSet
128 142 m 7x94
 128 92.7294921875 172.999023438 56 228.450195312 56 c 4
 289.013671875 56 358.923828125 96 412 166 c 5
 448 135 l 5
 403.982421875 63 316.099609375 -4 223.950195312 -4 c 4
 130.844726562 -4 62 50.2822265625 62 142 c 7
 62 252.145507812 168.395507812 300.005859375 260.849609375 308 c 4
 321.7734375 314 379.572265625 318 420 331 c 5
 420 266 l 5
 375.921875 258 313.573242188 253 267.150390625 248 c 4
 194.244140625 241.344726562 128 209.38671875 128 142 c 7x94
386.997070312 346 m 5
 376.333984375 426.59375 325.516601562 450 277.049804688 450 c 7xb8
 229.430664062 450 179.797851562 440 110 407 c 5
 100 407 l 5
 100 480 l 5xd8
 170.0078125 499 218.34375 510 274.349609375 510 c 7
 334.231445312 510 414.24609375 499.87890625 442.231445312 402 c 5
 386.997070312 346 l 5
753 29 m 5x7c
 714.583007812 8 647.631835938 -4 598.25 -4 c 7
 486.943359375 -4 370 66 370 249 c 7
 370 441 493.216796875 510 588.75 510 c 7
 686.133789062 510 775 445.991210938 775 312 c 7
 775 283.946289062 772 262 772 262 c 5
 421 262 l 5
 392 322 l 5
 704 322 l 5
 704 352 l 5
 692.040039062 411 644.912109375 450 586.950195312 450 c 7
 524.487304688 450 436 404 436 252 c 7
 436 120 517.653320312 56 600.049804688 56 c 7xbc
 640.59375 56 702.828125 66 741 90 c 5
 753 90 l 5
 753 29 l 5x7c
EndSplineSet
Fore
SplineSet
128 142 m 0xce
 128 92.7294921875 171.124592909 56 229.450195312 56 c 0
 281.92755686 56 349.920898438 88.0322265625 389 149.58984375 c 1
 389 261.279579401 l 1
 349.913454468 255.875952411 304.71260255 251.937976206 268.150390625 248 c 0
 192.546838811 241.344726562 128 209.38671875 128 142 c 0xce
763 29 m 1
 723.033070866 8 656.502755906 -4 608.25 -4 c 0
 534.590292865 -4 455 19 419 94.9208984375 c 1
 414.016601562 94.8271484375 l 1
 368.592773438 37.7890625 297.726220996 -4 224.950195312 -4 c 0
 128.897497631 -4 62 50.2822265625 62 142 c 0
 62 252.145507812 167.022843739 300.005859375 261.849609375 308 c 0
 308.524876506 312.596738008 352.192025092 316.019587109 388.243528958 323.21493541 c 1
 381.514875847 422.26356099 327.930664062 450 268.049804688 450 c 0xde
 222.969726562 450 181.937754916 440 110 407 c 1
 100 407 l 1
 100 480 l 1xee
 172.06236776 499 217.69952527 510 275.349609375 510 c 0
 335.551289859 510 400.579101562 496.767578125 426.971679688 428.403320312 c 1
 431.971679688 428.403320312 l 1
 466.737304688 492.760742188 537.81940951 510 594.75 510 c 0xde
 695.304784276 510 785 445.991210938 785 312 c 0
 785 283.946289062 782 262 782 262 c 1
 455 262 l 1
 455 178.48046875 l 1
 473 89 544.528730671 56 610.049804688 56 c 0
 650.307723154 56 711.131423105 66 751 90 c 1
 763 90 l 1
 763 29 l 1
455 343.745117188 m 1
 455 322 l 1
 714 322 l 1
 714 352 l 1
 701.415834316 411 653.934998243 450 592.950195312 450 c 0
 542.640058448 450 476 426 455 343.745117188 c 1
EndSplineSet
EndChar

StartChar: Ccedilla
Encoding: 199 199 112
Width: 650
Flags: W
HStem: -182 50<244.838 423.057> -161 53<226 331.805> -66 43<394 427.312> -4 34<385 421> 20 67<484.25 581> 619 67<479.414 581> 649 60<286.786 540.631>
VStem: 72 66<213.79 473.429> 429 54<-122.017 -69.132>
LayerCount: 2
Fore
SplineSet
385 30 m 1xb180
 421 30 l 1
 421 12 l 1
 394 -23 l 1
 440 -23 483 -38.0322265625 483 -92 c 0
 483 -155.346679688 414.956054688 -182 360 -182 c 0xb180
 314 -182 266 -174 226 -161 c 1
 226 -108 l 1
 240 -108 l 1x6180
 287 -124 324 -132 360 -132 c 0
 388.841796875 -132 429 -121.791015625 429 -92 c 0
 429 -74.673828125 408.073242188 -66 386 -66 c 3
 370.486328125 -66 354.25390625 -71 341 -72 c 1
 331 -72 l 1
 331 -32 l 1
 385 30 l 1xb180
72 339 m 3
 72 542 176 709 386 709 c 3x3380
 457 709 512 704 581 686 c 1
 581 619 l 1
 568 619 l 1x2580
 509 637 458 649 388 649 c 3
 226 649 138 507 138 341 c 3
 138 171 234 56 390 56 c 3
 460 56 509 69 568 87 c 1
 581 87 l 1
 581 20 l 1x2b80
 512 2 457 -4 386 -4 c 3
 176 -4 72 136 72 339 c 3
EndSplineSet
EndChar

StartChar: OE
Encoding: 338 338 113
Width: 980
Flags: W
HStem: -2 60<274.217 491.113 559 901> 342 60<559 851> 644 60<281.882 491.081 559 895>
VStem: 79 66<204.55 477.564> 493 66<66.6786 342 402 635.797>
LayerCount: 2
Fore
SplineSet
493 632.129882812 m 1
 452.080078125 639.866210938 409.506835938 644 369 644 c 0
 223.200195312 644 145 504 145 338 c 4
 145 168 230.400390625 58 370.799804688 58 c 0
 411.130859375 58 452.774414062 62.5078125 493 70.474609375 c 1
 493 632.129882812 l 1
79 336 m 4
 79 539 168.200195312 704 367.200195312 704 c 0
 413.763671875 704 464.098632812 698 515 698 c 0
 641.666666667 698 768.333333333 698 895 698 c 1
 895 638 l 1
 559 638 l 1
 559 402 l 1
 851 402 l 1
 851 342 l 1
 559 342 l 1
 559 64 l 1
 901 64 l 1
 901 4 l 1
 772 4 643 4 514 4 c 0
 464.176757812 4 413.534179688 -2 367.200195312 -2 c 0
 168.200195312 -2 79 133 79 336 c 4
EndSplineSet
EndChar

StartChar: J
Encoding: 74 74 114
Width: 480
Flags: W
HStem: -4 60<55.296 254.561> 18 64<35 124.067> 682 20G<318 384>
VStem: 318 66<133.848 702>
LayerCount: 2
Fore
SplineSet
384 702 m 25xb0
 384 502 384 529.069335938 384 269 c 3
 384 106.888671875 343.048828125 -4 180 -4 c 3xb0
 111.940429688 -4 74 2 35 18 c 1
 35 82 l 1
 45 82 l 1x70
 82 67 118.568359375 56 183 56 c 3
 263.088867188 56 318 112.838867188 318 265 c 3
 318 461.2578125 318 500 318 702 c 25
 384 702 l 25xb0
EndSplineSet
EndChar

StartChar: uni1E9E
Encoding: 7838 7838 115
Width: 750
Flags: W
HStem: -4 60<321.339 568.98> 26 68<271 342.111> 570 50<410.352 519.853> 646 60<252.36 512.44>
VStem: 99 66<0 549.114> 300 66<419.365 529.641> 617 66<100.72 232.448>
LayerCount: 2
Fore
SplineSet
621 652 m 9xbe
 621 555 l 1
 621 553 l 1
 611 553 l 1
 579 564 543 570 492 570 c 0
 434 570 366 543 366 469 c 0
 366 330 683 389 683 179 c 0
 683 79 628 -4 465 -4 c 0xbe
 382 -4 319 8 271 26 c 1
 271 94 l 1
 281 94 l 1x7e
 338 68 401 56 475 56 c 0
 565 56 617 93 617 175 c 0
 617 331 300 262 300 465 c 0
 300 553 368 620 476 620 c 3
 496 620 511 618 521 617 c 1
 521 621 l 1
 492 633 446 646 360 646 c 3
 236 646 165 592 165 417 c 0
 165 288 165 210 165 0 c 1
 99 0 l 1
 99 440 l 2
 99 615 192 706 344 706 c 3
 471 706 570 679 621 652 c 9xbe
EndSplineSet
EndChar

StartChar: adieresis
Encoding: 228 228 116
Width: 560
Flags: W
HStem: -4 60<158.3 320.979> 407 73<100 163.763> 450 60<161.436 359.647> 646 88<148 214 352 418>
VStem: 62 66<86.1794 201.496> 148 66<646 734> 352 66<646 734> 404 66<135 266 290 404.258> 404 30<266 331>
LayerCount: 2
Fore
SplineSet
128 142 m 3x9c80
 128 92.7294921875 164 56 232 56 c 0
 303 56 370 96 426 166 c 1
 462 135 l 1
 416 63 334 -4 227 -4 c 0
 117 -4 62 50.2822265625 62 142 c 3
 62 252.145507812 160 300.005859375 268 308 c 0
 340 314 391 318 434 331 c 1
 434 266 l 1
 387 258 330 253 275 248 c 0
 188 241.344726562 128 209.38671875 128 142 c 3x9c80
404 300 m 3xbd
 404 418 354.799804688 450 286 450 c 3xbd
 229.84375 450 184.078125 440 110 407 c 1
 100 407 l 1
 100 480 l 1xdd
 174.1171875 499 217.1171875 510 283 510 c 3
 374.428710938 510 470 493 470 290 c 3
 470 214 470 0 470 0 c 1xbd
 404 0 l 1xbc80
 404 214 404 219 404 300 c 3xbd
418 646 m 1x9e
 352 646 l 25
 352 734 l 1
 418 734 l 25
 418 646 l 1x9e
214 646 m 1
 148 646 l 25
 148 734 l 1
 214 734 l 25
 214 646 l 1
EndSplineSet
EndChar

StartChar: Q
Encoding: 81 81 117
Width: 760
Flags: W
HStem: -152 60<652.6 730> -4 60<277.055 521.578> 646 60<277.434 482.945>
VStem: 72 66<217.301 487.722> 622 66<217.239 485.533>
LayerCount: 2
Back
SplineSet
379 646 m 7
 217 646 138 516 138 350 c 7
 138 180 225 56 381 56 c 7
 543 56 622 187 622 353 c 7
 622 523 535 646 379 646 c 7
373 -4 m 7
 168 -4 72 145 72 348 c 7
 72 551 166.76171875 706 387 706 c 7
 592 706 688 558 688 355 c 7
 688 152 593 -4 373 -4 c 7
EndSplineSet
Fore
SplineSet
373 -4 m 3
 168 -4 72 145 72 348 c 3
 72 551 166.76171875 706 387 706 c 3
 592 706 688 558 688 355 c 3
 688 198.14361633 630 68 500 23 c 1
 499.071371206 17.0000023331 l 1
 462.750200569 3.37335034335 420.829166929 -4 373 -4 c 3
379 646 m 3
 217 646 138 516 138 350 c 3
 138 180 225 56 381 56 c 3
 543 56 622 187 622 353 c 3
 622 523 535 646 379 646 c 3
373 -4 m 1
 374 49 l 1
 540.1015625 49 612.280273438 -92 730 -92 c 1
 730 -152 l 1
 576 -152 521.578125 -4 373 -4 c 1
EndSplineSet
EndChar
